<?xml version="1.0" encoding="UTF-8" standalone="no"?><svg xmlns="http://www.w3.org/2000/svg" xmlns:xlink="http://www.w3.org/1999/xlink" clip-rule="evenodd" stroke-miterlimit="4.00" viewBox="0 0 1024 768"><desc>SVG generated by Keynote</desc><defs></defs><g transform="matrix(1.00, 0.00, -0.00, -1.00, 0.0, 768.0)"><g><clipPath id="clip-38"><path d="M 0.0 768.0 L 1024.0 768.0 L 1024.0 0.0 L 0.0 0.0 Z M 0.0 768.0 "></path></clipPath><g clip-path="url(#clip-38)"><image xlink:href="../../DE7CC215-8E88-4E8C-92CF-7B67931128F8/assets/8AB12F7B03861CD0D691945F61E00FB4.jpeg" width="1024.00" height="768.00" transform="matrix(1.00, 0.00, -0.00, -1.00, 0.0, 768.0)"></image></g></g><image xlink:href="../../42BA7AB1-F0BF-4652-9830-C58BD08C64A6/assets/1C770BF9A0E65B2C4E8FFBC8C594C851.png" width="810.00" height="55.00" transform="matrix(1.00, 0.00, -0.00, -1.00, 108.0, 667.0)"></image><text xml:space="preserve" font-family="HoeflerText-Regular" font-size="51.0" fill="#BBB08E" transform="matrix(1.00, 0.00, -0.00, -1.00, 110.0, 627.0)">A</text><text xml:space="preserve" font-family="HoeflerText-Regular" font-size="51.0" fill="#BBB08E" transform="matrix(1.00, 0.00, -0.00, -1.00, 147.4, 627.0)">r</text><text xml:space="preserve" font-family="HoeflerText-Regular" font-size="51.0" fill="#BBB08E" transform="matrix(1.00, 0.00, -0.00, -1.00, 166.4, 627.0)">i</text><text xml:space="preserve" font-family="HoeflerText-Regular" font-size="51.0" fill="#BBB08E" transform="matrix(1.00, 0.00, -0.00, -1.00, 180.7, 627.0)">s</text><text xml:space="preserve" font-family="HoeflerText-Regular" font-size="51.0" fill="#BBB08E" transform="matrix(1.00, 0.00, -0.00, -1.00, 200.2, 627.0)">t</text><text xml:space="preserve" font-family="HoeflerText-Regular" font-size="51.0" fill="#BBB08E" transform="matrix(1.00, 0.00, -0.00, -1.00, 218.2, 627.0)">o</text><text xml:space="preserve" font-family="HoeflerText-Regular" font-size="51.0" fill="#BBB08E" transform="matrix(1.00, 0.00, -0.00, -1.00, 245.6, 627.0)">t</text><text xml:space="preserve" font-family="HoeflerText-Regular" font-size="51.0" fill="#BBB08E" transform="matrix(1.00, 0.00, -0.00, -1.00, 263.6, 627.0)">e</text><text xml:space="preserve" font-family="HoeflerText-Regular" font-size="51.0" fill="#BBB08E" transform="matrix(1.00, 0.00, -0.00, -1.00, 287.5, 627.0)">l</text><text xml:space="preserve" font-family="HoeflerText-Regular" font-size="51.0" fill="#BBB08E" transform="matrix(1.00, 0.00, -0.00, -1.00, 300.7, 627.0)">i</text><text xml:space="preserve" font-family="HoeflerText-Regular" font-size="51.0" fill="#BBB08E" transform="matrix(1.00, 0.00, -0.00, -1.00, 315.0, 627.0)">a</text><text xml:space="preserve" font-family="HoeflerText-Regular" font-size="51.0" fill="#BBB08E" transform="matrix(1.00, 0.00, -0.00, -1.00, 337.7, 627.0)">n</text><text xml:space="preserve" font-family="HoeflerText-Regular" font-size="51.0" fill="#BBB08E" transform="matrix(1.00, 0.00, -0.00, -1.00, 365.7, 627.0)">i</text><text xml:space="preserve" font-family="HoeflerText-Regular" font-size="51.0" fill="#BBB08E" transform="matrix(1.00, 0.00, -0.00, -1.00, 379.9, 627.0)">s</text><text xml:space="preserve" font-family="HoeflerText-Regular" font-size="51.0" fill="#BBB08E" transform="matrix(1.00, 0.00, -0.00, -1.00, 399.4, 627.0)">m</text><text xml:space="preserve" font-family="HoeflerText-Regular" font-size="51.0" fill="#BBB08E" transform="matrix(1.00, 0.00, -0.00, -1.00, 441.6, 627.0)"> </text><text xml:space="preserve" font-family="HoeflerText-Regular" font-size="51.0" fill="#BBB08E" transform="matrix(1.00, 0.00, -0.00, -1.00, 454.4, 627.0)">i</text><text xml:space="preserve" font-family="HoeflerText-Regular" font-size="51.0" fill="#BBB08E" transform="matrix(1.00, 0.00, -0.00, -1.00, 468.6, 627.0)">n</text><text xml:space="preserve" font-family="HoeflerText-Regular" font-size="51.0" fill="#BBB08E" transform="matrix(1.00, 0.00, -0.00, -1.00, 496.6, 627.0)"> </text><text xml:space="preserve" font-family="HoeflerText-Regular" font-size="51.0" fill="#BBB08E" transform="matrix(1.00, 0.00, -0.00, -1.00, 509.3, 627.0)">I</text><text xml:space="preserve" font-family="HoeflerText-Regular" font-size="51.0" fill="#BBB08E" transform="matrix(1.00, 0.00, -0.00, -1.00, 529.2, 627.0)">s</text><text xml:space="preserve" font-family="HoeflerText-Regular" font-size="51.0" fill="#BBB08E" transform="matrix(1.00, 0.00, -0.00, -1.00, 548.7, 627.0)">l</text><text xml:space="preserve" font-family="HoeflerText-Regular" font-size="51.0" fill="#BBB08E" transform="matrix(1.00, 0.00, -0.00, -1.00, 561.9, 627.0)">a</text><text xml:space="preserve" font-family="HoeflerText-Regular" font-size="51.0" fill="#BBB08E" transform="matrix(1.00, 0.00, -0.00, -1.00, 584.7, 627.0)">m</text><text xml:space="preserve" font-family="HoeflerText-Regular" font-size="51.0" fill="#BBB08E" transform="matrix(1.00, 0.00, -0.00, -1.00, 626.8, 627.0)">i</text><text xml:space="preserve" font-family="HoeflerText-Regular" font-size="51.0" fill="#BBB08E" transform="matrix(1.00, 0.00, -0.00, -1.00, 641.1, 627.0)">c</text><text xml:space="preserve" font-family="HoeflerText-Regular" font-size="51.0" fill="#BBB08E" transform="matrix(1.00, 0.00, -0.00, -1.00, 664.7, 627.0)"> </text><text xml:space="preserve" font-family="HoeflerText-Regular" font-size="51.0" fill="#BBB08E" transform="matrix(1.00, 0.00, -0.00, -1.00, 677.4, 627.0)">p</text><text xml:space="preserve" font-family="HoeflerText-Regular" font-size="51.0" fill="#BBB08E" transform="matrix(1.00, 0.00, -0.00, -1.00, 705.4, 627.0)">h</text><text xml:space="preserve" font-family="HoeflerText-Regular" font-size="51.0" fill="#BBB08E" transform="matrix(1.00, 0.00, -0.00, -1.00, 733.6, 627.0)">i</text><text xml:space="preserve" font-family="HoeflerText-Regular" font-size="51.0" fill="#BBB08E" transform="matrix(1.00, 0.00, -0.00, -1.00, 747.9, 627.0)">l</text><text xml:space="preserve" font-family="HoeflerText-Regular" font-size="51.0" fill="#BBB08E" transform="matrix(1.00, 0.00, -0.00, -1.00, 761.1, 627.0)">o</text><text xml:space="preserve" font-family="HoeflerText-Regular" font-size="51.0" fill="#BBB08E" transform="matrix(1.00, 0.00, -0.00, -1.00, 788.5, 627.0)">s</text><text xml:space="preserve" font-family="HoeflerText-Regular" font-size="51.0" fill="#BBB08E" transform="matrix(1.00, 0.00, -0.00, -1.00, 807.9, 627.0)">o</text><text xml:space="preserve" font-family="HoeflerText-Regular" font-size="51.0" fill="#BBB08E" transform="matrix(1.00, 0.00, -0.00, -1.00, 835.3, 627.0)">p</text><text xml:space="preserve" font-family="HoeflerText-Regular" font-size="51.0" fill="#BBB08E" transform="matrix(1.00, 0.00, -0.00, -1.00, 863.2, 627.0)">h</text><text xml:space="preserve" font-family="HoeflerText-Regular" font-size="51.0" fill="#BBB08E" transform="matrix(1.00, 0.00, -0.00, -1.00, 891.5, 627.0)">y</text><image xlink:href="../../7F3CA175-DF04-41A9-BD97-0256C9F13A36/assets/99BB394B39CB0B566A671D55F004D41B.png" width="20.00" height="20.00" transform="matrix(1.00, 0.00, -0.00, -1.00, 102.0, 491.0)"></image><image xlink:href="../../9D147B69-119C-4AA4-B97D-0833976F084A/assets/657C6734F74D067B27F2629212620E76.png" width="18.00" height="18.00" transform="matrix(0.89, 0.00, -0.00, -0.89, 104.0, 490.0)"></image><image xlink:href="../../09871B85-5797-4586-A0B6-D2D9D2871D63/assets/2659681A69B4572991B70C81B60E2FEF.png" width="425.00" height="34.00" transform="matrix(1.00, 0.00, -0.00, -1.00, 130.0, 500.0)"></image><text xml:space="preserve" font-family="HoeflerText-Italic" font-style="italic" font-size="32.0" fill="#86837E" transform="matrix(1.00, 0.00, -0.00, -1.00, 134.0, 475.0)">A</text><text xml:space="preserve" font-family="HoeflerText-Italic" font-style="italic" font-size="32.0" fill="#86837E" transform="matrix(1.00, 0.00, -0.00, -1.00, 157.4, 475.0)">l</text><text xml:space="preserve" font-family="HoeflerText-Italic" font-style="italic" font-size="32.0" fill="#86837E" transform="matrix(1.00, 0.00, -0.00, -1.00, 166.0, 475.0)"> </text><text xml:space="preserve" font-family="HoeflerText-Italic" font-style="italic" font-size="32.0" fill="#86837E" transform="matrix(1.00, 0.00, -0.00, -1.00, 172.6, 475.0)">K</text><text xml:space="preserve" font-family="HoeflerText-Italic" font-style="italic" font-size="32.0" fill="#86837E" transform="matrix(1.00, 0.00, -0.00, -1.00, 195.5, 475.0)">a</text><text xml:space="preserve" font-family="HoeflerText-Italic" font-style="italic" font-size="32.0" fill="#86837E" transform="matrix(1.00, 0.00, -0.00, -1.00, 210.3, 475.0)">n</text><text xml:space="preserve" font-family="HoeflerText-Italic" font-style="italic" font-size="32.0" fill="#86837E" transform="matrix(1.00, 0.00, -0.00, -1.00, 225.7, 475.0)">d</text><text xml:space="preserve" font-family="HoeflerText-Italic" font-style="italic" font-size="32.0" fill="#86837E" transform="matrix(1.00, 0.00, -0.00, -1.00, 241.0, 475.0)">i</text><text xml:space="preserve" font-family="HoeflerText-Italic" font-style="italic" font-size="32.0" fill="#86837E" transform="matrix(1.00, 0.00, -0.00, -1.00, 249.2, 475.0)">,</text><text xml:space="preserve" font-family="HoeflerText-Italic" font-style="italic" font-size="32.0" fill="#86837E" transform="matrix(1.00, 0.00, -0.00, -1.00, 256.5, 475.0)"> </text><text xml:space="preserve" font-family="HoeflerText-Italic" font-style="italic" font-size="32.0" fill="#86837E" transform="matrix(1.00, 0.00, -0.00, -1.00, 263.0, 475.0)">I</text><text xml:space="preserve" font-family="HoeflerText-Italic" font-style="italic" font-size="32.0" fill="#86837E" transform="matrix(1.00, 0.00, -0.00, -1.00, 275.2, 475.0)">b</text><text xml:space="preserve" font-family="HoeflerText-Italic" font-style="italic" font-size="32.0" fill="#86837E" transform="matrix(1.00, 0.00, -0.00, -1.00, 289.6, 475.0)">n</text><text xml:space="preserve" font-family="HoeflerText-Italic" font-style="italic" font-size="32.0" fill="#86837E" transform="matrix(1.00, 0.00, -0.00, -1.00, 305.0, 475.0)"> </text><text xml:space="preserve" font-family="HoeflerText-Italic" font-style="italic" font-size="32.0" fill="#86837E" transform="matrix(1.00, 0.00, -0.00, -1.00, 311.5, 475.0)">S</text><text xml:space="preserve" font-family="HoeflerText-Italic" font-style="italic" font-size="32.0" fill="#86837E" transform="matrix(1.00, 0.00, -0.00, -1.00, 327.9, 475.0)">i</text><text xml:space="preserve" font-family="HoeflerText-Italic" font-style="italic" font-size="32.0" fill="#86837E" transform="matrix(1.00, 0.00, -0.00, -1.00, 337.0, 475.0)">n</text><text xml:space="preserve" font-family="HoeflerText-Italic" font-style="italic" font-size="32.0" fill="#86837E" transform="matrix(1.00, 0.00, -0.00, -1.00, 352.4, 475.0)">a</text><text xml:space="preserve" font-family="HoeflerText-Italic" font-style="italic" font-size="32.0" fill="#86837E" transform="matrix(1.00, 0.00, -0.00, -1.00, 365.9, 475.0)">,</text><text xml:space="preserve" font-family="HoeflerText-Italic" font-style="italic" font-size="32.0" fill="#86837E" transform="matrix(1.00, 0.00, -0.00, -1.00, 373.2, 475.0)"> </text><text xml:space="preserve" font-family="HoeflerText-Italic" font-style="italic" font-size="32.0" fill="#86837E" transform="matrix(1.00, 0.00, -0.00, -1.00, 379.8, 475.0)">I</text><text xml:space="preserve" font-family="HoeflerText-Italic" font-style="italic" font-size="32.0" fill="#86837E" transform="matrix(1.00, 0.00, -0.00, -1.00, 392.0, 475.0)">b</text><text xml:space="preserve" font-family="HoeflerText-Italic" font-style="italic" font-size="32.0" fill="#86837E" transform="matrix(1.00, 0.00, -0.00, -1.00, 406.4, 475.0)">n</text><text xml:space="preserve" font-family="HoeflerText-Italic" font-style="italic" font-size="32.0" fill="#86837E" transform="matrix(1.00, 0.00, -0.00, -1.00, 421.7, 475.0)"> </text><text xml:space="preserve" font-family="HoeflerText-Italic" font-style="italic" font-size="32.0" fill="#86837E" transform="matrix(1.00, 0.00, -0.00, -1.00, 426.4, 475.0)">A</text><text xml:space="preserve" font-family="HoeflerText-Italic" font-style="italic" font-size="32.0" fill="#86837E" transform="matrix(1.00, 0.00, -0.00, -1.00, 449.8, 475.0)">l</text><text xml:space="preserve" font-family="HoeflerText-Italic" font-style="italic" font-size="32.0" fill="#86837E" transform="matrix(1.00, 0.00, -0.00, -1.00, 458.4, 475.0)">-</text><text xml:space="preserve" font-family="HoeflerText-Italic" font-style="italic" font-size="32.0" fill="#86837E" transform="matrix(1.00, 0.00, -0.00, -1.00, 468.0, 475.0)">N</text><text xml:space="preserve" font-family="HoeflerText-Italic" font-style="italic" font-size="32.0" fill="#86837E" transform="matrix(1.00, 0.00, -0.00, -1.00, 491.6, 475.0)">a</text><text xml:space="preserve" font-family="HoeflerText-Italic" font-style="italic" font-size="32.0" fill="#86837E" transform="matrix(1.00, 0.00, -0.00, -1.00, 506.4, 475.0)">d</text><text xml:space="preserve" font-family="HoeflerText-Italic" font-style="italic" font-size="32.0" fill="#86837E" transform="matrix(1.00, 0.00, -0.00, -1.00, 521.7, 475.0)">i</text><text xml:space="preserve" font-family="HoeflerText-Italic" font-style="italic" font-size="32.0" fill="#86837E" transform="matrix(1.00, 0.00, -0.00, -1.00, 530.9, 475.0)">m</text><image xlink:href="../../09871B85-5797-4586-A0B6-D2D9D2871D63/assets/E4886D3E5D4FB3342150D996ED800AE7.png" width="20.00" height="21.00" transform="matrix(1.00, 0.00, -0.00, -1.00, 102.0, 421.0)"></image><image xlink:href="../../9D147B69-119C-4AA4-B97D-0833976F084A/assets/657C6734F74D067B27F2629212620E76.png" width="18.00" height="18.00" transform="matrix(0.89, 0.00, -0.00, -0.89, 104.0, 419.4)"></image><image xlink:href="../../09871B85-5797-4586-A0B6-D2D9D2871D63/assets/AD4718632FD804CBCB1F30C537E946F5.png" width="125.00" height="29.00" transform="matrix(1.00, 0.00, -0.00, -1.00, 130.0, 429.0)"></image><text xml:space="preserve" font-family="HoeflerText-Italic" font-style="italic" font-size="32.0" fill="#86837E" transform="matrix(1.00, 0.00, -0.00, -1.00, 134.0, 404.0)">A</text><text xml:space="preserve" font-family="HoeflerText-Italic" font-style="italic" font-size="32.0" fill="#86837E" transform="matrix(1.00, 0.00, -0.00, -1.00, 157.4, 404.0)">l</text><text xml:space="preserve" font-family="HoeflerText-Italic" font-style="italic" font-size="32.0" fill="#86837E" transform="matrix(1.00, 0.00, -0.00, -1.00, 166.0, 404.0)"> </text><text xml:space="preserve" font-family="HoeflerText-Italic" font-style="italic" font-size="32.0" fill="#86837E" transform="matrix(1.00, 0.00, -0.00, -1.00, 172.6, 404.0)">F</text><text xml:space="preserve" font-family="HoeflerText-Italic" font-style="italic" font-size="32.0" fill="#86837E" transform="matrix(1.00, 0.00, -0.00, -1.00, 188.4, 404.0)">a</text><text xml:space="preserve" font-family="HoeflerText-Italic" font-style="italic" font-size="32.0" fill="#86837E" transform="matrix(1.00, 0.00, -0.00, -1.00, 203.3, 404.0)">r</text><text xml:space="preserve" font-family="HoeflerText-Italic" font-style="italic" font-size="32.0" fill="#86837E" transform="matrix(1.00, 0.00, -0.00, -1.00, 213.7, 404.0)">a</text><text xml:space="preserve" font-family="HoeflerText-Italic" font-style="italic" font-size="32.0" fill="#86837E" transform="matrix(1.00, 0.00, -0.00, -1.00, 228.6, 404.0)">b</text><text xml:space="preserve" font-family="HoeflerText-Italic" font-style="italic" font-size="32.0" fill="#86837E" transform="matrix(1.00, 0.00, -0.00, -1.00, 243.0, 404.0)">i</text><image xlink:href="../../09871B85-5797-4586-A0B6-D2D9D2871D63/assets/711F5FC4180B234010C44E48E24251F4.png" width="21.00" height="21.00" transform="matrix(1.00, 0.00, -0.00, -1.00, 131.0, 350.0)"></image><image xlink:href="../../9D147B69-119C-4AA4-B97D-0833976F084A/assets/657C6734F74D067B27F2629212620E76.png" width="18.00" height="18.00" transform="matrix(0.89, 0.00, -0.00, -0.89, 133.7, 348.8)"></image><image xlink:href="../../09871B85-5797-4586-A0B6-D2D9D2871D63/assets/C72654F44BAC687C901804CCFC296F26.png" width="650.00" height="34.00" transform="matrix(1.00, 0.00, -0.00, -1.00, 162.0, 359.0)"></image><text xml:space="preserve" font-family="HoeflerText-Italic" font-style="italic" font-size="32.0" fill="#86837E" transform="matrix(1.00, 0.00, -0.00, -1.00, 163.0, 334.0)">C</text><text xml:space="preserve" font-family="HoeflerText-Italic" font-style="italic" font-size="32.0" fill="#86837E" transform="matrix(1.00, 0.00, -0.00, -1.00, 184.4, 334.0)">o</text><text xml:space="preserve" font-family="HoeflerText-Italic" font-style="italic" font-size="32.0" fill="#86837E" transform="matrix(1.00, 0.00, -0.00, -1.00, 197.8, 334.0)">n</text><text xml:space="preserve" font-family="HoeflerText-Italic" font-style="italic" font-size="32.0" fill="#86837E" transform="matrix(1.00, 0.00, -0.00, -1.00, 213.1, 334.0)">s</text><text xml:space="preserve" font-family="HoeflerText-Italic" font-style="italic" font-size="32.0" fill="#86837E" transform="matrix(1.00, 0.00, -0.00, -1.00, 222.6, 334.0)">i</text><text xml:space="preserve" font-family="HoeflerText-Italic" font-style="italic" font-size="32.0" fill="#86837E" transform="matrix(1.00, 0.00, -0.00, -1.00, 231.7, 334.0)">d</text><text xml:space="preserve" font-family="HoeflerText-Italic" font-style="italic" font-size="32.0" fill="#86837E" transform="matrix(1.00, 0.00, -0.00, -1.00, 247.0, 334.0)">e</text><text xml:space="preserve" font-family="HoeflerText-Italic" font-style="italic" font-size="32.0" fill="#86837E" transform="matrix(1.00, 0.00, -0.00, -1.00, 258.4, 334.0)">r</text><text xml:space="preserve" font-family="HoeflerText-Italic" font-style="italic" font-size="32.0" fill="#86837E" transform="matrix(1.00, 0.00, -0.00, -1.00, 270.6, 334.0)">e</text><text xml:space="preserve" font-family="HoeflerText-Italic" font-style="italic" font-size="32.0" fill="#86837E" transform="matrix(1.00, 0.00, -0.00, -1.00, 281.9, 334.0)">d</text><text xml:space="preserve" font-family="HoeflerText-Italic" font-style="italic" font-size="32.0" fill="#86837E" transform="matrix(1.00, 0.00, -0.00, -1.00, 297.2, 334.0)"> </text><text xml:space="preserve" font-family="HoeflerText-Italic" font-style="italic" font-size="32.0" fill="#86837E" transform="matrix(1.00, 0.00, -0.00, -1.00, 301.8, 334.0)">A</text><text xml:space="preserve" font-family="HoeflerText-Italic" font-style="italic" font-size="32.0" fill="#86837E" transform="matrix(1.00, 0.00, -0.00, -1.00, 325.1, 334.0)">r</text><text xml:space="preserve" font-family="HoeflerText-Italic" font-style="italic" font-size="32.0" fill="#86837E" transform="matrix(1.00, 0.00, -0.00, -1.00, 337.3, 334.0)">i</text><text xml:space="preserve" font-family="HoeflerText-Italic" font-style="italic" font-size="32.0" fill="#86837E" transform="matrix(1.00, 0.00, -0.00, -1.00, 346.5, 334.0)">s</text><text xml:space="preserve" font-family="HoeflerText-Italic" font-style="italic" font-size="32.0" fill="#86837E" transform="matrix(1.00, 0.00, -0.00, -1.00, 356.0, 334.0)">t</text><text xml:space="preserve" font-family="HoeflerText-Italic" font-style="italic" font-size="32.0" fill="#86837E" transform="matrix(1.00, 0.00, -0.00, -1.00, 366.1, 334.0)">o</text><text xml:space="preserve" font-family="HoeflerText-Italic" font-style="italic" font-size="32.0" fill="#86837E" transform="matrix(1.00, 0.00, -0.00, -1.00, 379.4, 334.0)">t</text><text xml:space="preserve" font-family="HoeflerText-Italic" font-style="italic" font-size="32.0" fill="#86837E" transform="matrix(1.00, 0.00, -0.00, -1.00, 389.5, 334.0)">e</text><text xml:space="preserve" font-family="HoeflerText-Italic" font-style="italic" font-size="32.0" fill="#86837E" transform="matrix(1.00, 0.00, -0.00, -1.00, 400.9, 334.0)">l</text><text xml:space="preserve" font-family="HoeflerText-Italic" font-style="italic" font-size="32.0" fill="#86837E" transform="matrix(1.00, 0.00, -0.00, -1.00, 409.4, 334.0)">i</text><text xml:space="preserve" font-family="HoeflerText-Italic" font-style="italic" font-size="32.0" fill="#86837E" transform="matrix(1.00, 0.00, -0.00, -1.00, 418.6, 334.0)">a</text><text xml:space="preserve" font-family="HoeflerText-Italic" font-style="italic" font-size="32.0" fill="#86837E" transform="matrix(1.00, 0.00, -0.00, -1.00, 433.4, 334.0)">n</text><text xml:space="preserve" font-family="HoeflerText-Italic" font-style="italic" font-size="32.0" fill="#86837E" transform="matrix(1.00, 0.00, -0.00, -1.00, 448.8, 334.0)">,</text><text xml:space="preserve" font-family="HoeflerText-Italic" font-style="italic" font-size="32.0" fill="#86837E" transform="matrix(1.00, 0.00, -0.00, -1.00, 456.1, 334.0)"> </text><text xml:space="preserve" font-family="HoeflerText-Italic" font-style="italic" font-size="32.0" fill="#86837E" transform="matrix(1.00, 0.00, -0.00, -1.00, 462.6, 334.0)">k</text><text xml:space="preserve" font-family="HoeflerText-Italic" font-style="italic" font-size="32.0" fill="#86837E" transform="matrix(1.00, 0.00, -0.00, -1.00, 477.7, 334.0)">n</text><text xml:space="preserve" font-family="HoeflerText-Italic" font-style="italic" font-size="32.0" fill="#86837E" transform="matrix(1.00, 0.00, -0.00, -1.00, 493.0, 334.0)">o</text><text xml:space="preserve" font-family="HoeflerText-Italic" font-style="italic" font-size="32.0" fill="#86837E" transform="matrix(1.00, 0.00, -0.00, -1.00, 506.4, 334.0)">w</text><text xml:space="preserve" font-family="HoeflerText-Italic" font-style="italic" font-size="32.0" fill="#86837E" transform="matrix(1.00, 0.00, -0.00, -1.00, 530.6, 334.0)">n</text><text xml:space="preserve" font-family="HoeflerText-Italic" font-style="italic" font-size="32.0" fill="#86837E" transform="matrix(1.00, 0.00, -0.00, -1.00, 545.9, 334.0)"> </text><text xml:space="preserve" font-family="HoeflerText-Italic" font-style="italic" font-size="32.0" fill="#86837E" transform="matrix(1.00, 0.00, -0.00, -1.00, 552.5, 334.0)">a</text><text xml:space="preserve" font-family="HoeflerText-Italic" font-style="italic" font-size="32.0" fill="#86837E" transform="matrix(1.00, 0.00, -0.00, -1.00, 567.4, 334.0)">s</text><text xml:space="preserve" font-family="HoeflerText-Italic" font-style="italic" font-size="32.0" fill="#86837E" transform="matrix(1.00, 0.00, -0.00, -1.00, 576.8, 334.0)"> </text><text xml:space="preserve" font-family="HoeflerText-Italic" font-style="italic" font-size="32.0" fill="#86837E" transform="matrix(1.00, 0.00, -0.00, -1.00, 583.4, 334.0)">t</text><text xml:space="preserve" font-family="HoeflerText-Italic" font-style="italic" font-size="32.0" fill="#86837E" transform="matrix(1.00, 0.00, -0.00, -1.00, 593.5, 334.0)">h</text><text xml:space="preserve" font-family="HoeflerText-Italic" font-style="italic" font-size="32.0" fill="#86837E" transform="matrix(1.00, 0.00, -0.00, -1.00, 609.2, 334.0)">e</text><text xml:space="preserve" font-family="HoeflerText-Italic" font-style="italic" font-size="32.0" fill="#86837E" transform="matrix(1.00, 0.00, -0.00, -1.00, 620.6, 334.0)"> </text><text xml:space="preserve" font-family="HoeflerText-Italic" font-style="italic" font-size="32.0" fill="#86837E" transform="matrix(1.00, 0.00, -0.00, -1.00, 627.1, 334.0)">S</text><text xml:space="preserve" font-family="HoeflerText-Italic" font-style="italic" font-size="32.0" fill="#86837E" transform="matrix(1.00, 0.00, -0.00, -1.00, 643.8, 334.0)">e</text><text xml:space="preserve" font-family="HoeflerText-Italic" font-style="italic" font-size="32.0" fill="#86837E" transform="matrix(1.00, 0.00, -0.00, -1.00, 655.1, 334.0)">c</text><text xml:space="preserve" font-family="HoeflerText-Italic" font-style="italic" font-size="32.0" fill="#86837E" transform="matrix(1.00, 0.00, -0.00, -1.00, 666.3, 334.0)">o</text><text xml:space="preserve" font-family="HoeflerText-Italic" font-style="italic" font-size="32.0" fill="#86837E" transform="matrix(1.00, 0.00, -0.00, -1.00, 679.6, 334.0)">n</text><text xml:space="preserve" font-family="HoeflerText-Italic" font-style="italic" font-size="32.0" fill="#86837E" transform="matrix(1.00, 0.00, -0.00, -1.00, 695.0, 334.0)">d</text><text xml:space="preserve" font-family="HoeflerText-Italic" font-style="italic" font-size="32.0" fill="#86837E" transform="matrix(1.00, 0.00, -0.00, -1.00, 710.3, 334.0)"> </text><text xml:space="preserve" font-family="HoeflerText-Italic" font-style="italic" font-size="32.0" fill="#86837E" transform="matrix(1.00, 0.00, -0.00, -1.00, 715.2, 334.0)">T</text><text xml:space="preserve" font-family="HoeflerText-Italic" font-style="italic" font-size="32.0" fill="#86837E" transform="matrix(1.00, 0.00, -0.00, -1.00, 732.0, 334.0)">e</text><text xml:space="preserve" font-family="HoeflerText-Italic" font-style="italic" font-size="32.0" fill="#86837E" transform="matrix(1.00, 0.00, -0.00, -1.00, 743.4, 334.0)">a</text><text xml:space="preserve" font-family="HoeflerText-Italic" font-style="italic" font-size="32.0" fill="#86837E" transform="matrix(1.00, 0.00, -0.00, -1.00, 758.2, 334.0)">c</text><text xml:space="preserve" font-family="HoeflerText-Italic" font-style="italic" font-size="32.0" fill="#86837E" transform="matrix(1.00, 0.00, -0.00, -1.00, 769.4, 334.0)">h</text><text xml:space="preserve" font-family="HoeflerText-Italic" font-style="italic" font-size="32.0" fill="#86837E" transform="matrix(1.00, 0.00, -0.00, -1.00, 785.1, 334.0)">e</text><text xml:space="preserve" font-family="HoeflerText-Italic" font-style="italic" font-size="32.0" fill="#86837E" transform="matrix(1.00, 0.00, -0.00, -1.00, 796.4, 334.0)">r</text><image xlink:href="../../09871B85-5797-4586-A0B6-D2D9D2871D63/assets/B9F326DBAD23B1B5DBBB4F89BB5AD9C1.png" width="21.00" height="21.00" transform="matrix(1.00, 0.00, -0.00, -1.00, 131.0, 280.0)"></image><image xlink:href="../../9D147B69-119C-4AA4-B97D-0833976F084A/assets/657C6734F74D067B27F2629212620E76.png" width="18.00" height="18.00" transform="matrix(0.89, 0.00, -0.00, -0.89, 133.7, 278.2)"></image><image xlink:href="../../09871B85-5797-4586-A0B6-D2D9D2871D63/assets/EF3B550D1F087357DEE02AB75F07F0BF.png" width="294.00" height="37.00" transform="matrix(1.00, 0.00, -0.00, -1.00, 163.0, 288.0)"></image><text xml:space="preserve" font-family="HoeflerText-Italic" font-style="italic" font-size="32.0" fill="#86837E" transform="matrix(1.00, 0.00, -0.00, -1.00, 163.0, 263.0)">W</text><text xml:space="preserve" font-family="HoeflerText-Italic" font-style="italic" font-size="32.0" fill="#86837E" transform="matrix(1.00, 0.00, -0.00, -1.00, 190.9, 263.0)">r</text><text xml:space="preserve" font-family="HoeflerText-Italic" font-style="italic" font-size="32.0" fill="#86837E" transform="matrix(1.00, 0.00, -0.00, -1.00, 203.1, 263.0)">o</text><text xml:space="preserve" font-family="HoeflerText-Italic" font-style="italic" font-size="32.0" fill="#86837E" transform="matrix(1.00, 0.00, -0.00, -1.00, 216.4, 263.0)">t</text><text xml:space="preserve" font-family="HoeflerText-Italic" font-style="italic" font-size="32.0" fill="#86837E" transform="matrix(1.00, 0.00, -0.00, -1.00, 226.6, 263.0)">e</text><text xml:space="preserve" font-family="HoeflerText-Italic" font-style="italic" font-size="32.0" fill="#86837E" transform="matrix(1.00, 0.00, -0.00, -1.00, 237.9, 263.0)"> </text><text xml:space="preserve" font-family="HoeflerText-Italic" font-style="italic" font-size="32.0" fill="#86837E" transform="matrix(1.00, 0.00, -0.00, -1.00, 244.4, 263.0)">K</text><text xml:space="preserve" font-family="HoeflerText-Italic" font-style="italic" font-size="32.0" fill="#86837E" transform="matrix(1.00, 0.00, -0.00, -1.00, 267.4, 263.0)">i</text><text xml:space="preserve" font-family="HoeflerText-Italic" font-style="italic" font-size="32.0" fill="#86837E" transform="matrix(1.00, 0.00, -0.00, -1.00, 276.5, 263.0)">t</text><text xml:space="preserve" font-family="HoeflerText-Italic" font-style="italic" font-size="32.0" fill="#86837E" transform="matrix(1.00, 0.00, -0.00, -1.00, 286.6, 263.0)">a</text><text xml:space="preserve" font-family="HoeflerText-Italic" font-style="italic" font-size="32.0" fill="#86837E" transform="matrix(1.00, 0.00, -0.00, -1.00, 301.5, 263.0)">b</text><text xml:space="preserve" font-family="HoeflerText-Italic" font-style="italic" font-size="32.0" fill="#86837E" transform="matrix(1.00, 0.00, -0.00, -1.00, 315.9, 263.0)"> </text><text xml:space="preserve" font-family="HoeflerText-Italic" font-style="italic" font-size="32.0" fill="#86837E" transform="matrix(1.00, 0.00, -0.00, -1.00, 320.5, 263.0)">A</text><text xml:space="preserve" font-family="HoeflerText-Italic" font-style="italic" font-size="32.0" fill="#86837E" transform="matrix(1.00, 0.00, -0.00, -1.00, 343.9, 263.0)">l</text><text xml:space="preserve" font-family="HoeflerText-Italic" font-style="italic" font-size="32.0" fill="#86837E" transform="matrix(1.00, 0.00, -0.00, -1.00, 352.5, 263.0)"> </text><text xml:space="preserve" font-family="HoeflerText-Italic" font-style="italic" font-size="32.0" fill="#86837E" transform="matrix(1.00, 0.00, -0.00, -1.00, 359.1, 263.0)">H</text><text xml:space="preserve" font-family="HoeflerText-Italic" font-style="italic" font-size="32.0" fill="#86837E" transform="matrix(1.00, 0.00, -0.00, -1.00, 383.8, 263.0)">u</text><text xml:space="preserve" font-family="HoeflerText-Italic" font-style="italic" font-size="32.0" fill="#86837E" transform="matrix(1.00, 0.00, -0.00, -1.00, 399.5, 263.0)">r</text><text xml:space="preserve" font-family="HoeflerText-Italic" font-style="italic" font-size="32.0" fill="#86837E" transform="matrix(1.00, 0.00, -0.00, -1.00, 411.7, 263.0)">o</text><text xml:space="preserve" font-family="HoeflerText-Italic" font-style="italic" font-size="32.0" fill="#86837E" transform="matrix(1.00, 0.00, -0.00, -1.00, 425.0, 263.0)">o</text><text xml:space="preserve" font-family="HoeflerText-Italic" font-style="italic" font-size="32.0" fill="#86837E" transform="matrix(1.00, 0.00, -0.00, -1.00, 438.4, 263.0)">f</text><image xlink:href="../../09871B85-5797-4586-A0B6-D2D9D2871D63/assets/0BB11B544DDC8C6464075DEC06F37101.png" width="20.00" height="21.00" transform="matrix(1.00, 0.00, -0.00, -1.00, 102.0, 209.0)"></image><image xlink:href="../../9D147B69-119C-4AA4-B97D-0833976F084A/assets/657C6734F74D067B27F2629212620E76.png" width="18.00" height="18.00" transform="matrix(0.89, 0.00, -0.00, -0.89, 104.0, 207.6)"></image><image xlink:href="../../09871B85-5797-4586-A0B6-D2D9D2871D63/assets/D3FC2783E204AF263315C56A943E8FE4.png" width="134.00" height="29.00" transform="matrix(1.00, 0.00, -0.00, -1.00, 131.0, 218.0)"></image><text xml:space="preserve" font-family="HoeflerText-Italic" font-style="italic" font-size="32.0" fill="#86837E" transform="matrix(1.00, 0.00, -0.00, -1.00, 134.0, 193.0)">I</text><text xml:space="preserve" font-family="HoeflerText-Italic" font-style="italic" font-size="32.0" fill="#86837E" transform="matrix(1.00, 0.00, -0.00, -1.00, 146.2, 193.0)">b</text><text xml:space="preserve" font-family="HoeflerText-Italic" font-style="italic" font-size="32.0" fill="#86837E" transform="matrix(1.00, 0.00, -0.00, -1.00, 160.6, 193.0)">n</text><text xml:space="preserve" font-family="HoeflerText-Italic" font-style="italic" font-size="32.0" fill="#86837E" transform="matrix(1.00, 0.00, -0.00, -1.00, 176.0, 193.0)"> </text><text xml:space="preserve" font-family="HoeflerText-Italic" font-style="italic" font-size="32.0" fill="#86837E" transform="matrix(1.00, 0.00, -0.00, -1.00, 182.5, 193.0)">R</text><text xml:space="preserve" font-family="HoeflerText-Italic" font-style="italic" font-size="32.0" fill="#86837E" transform="matrix(1.00, 0.00, -0.00, -1.00, 204.0, 193.0)">u</text><text xml:space="preserve" font-family="HoeflerText-Italic" font-style="italic" font-size="32.0" fill="#86837E" transform="matrix(1.00, 0.00, -0.00, -1.00, 219.7, 193.0)">s</text><text xml:space="preserve" font-family="HoeflerText-Italic" font-style="italic" font-size="32.0" fill="#86837E" transform="matrix(1.00, 0.00, -0.00, -1.00, 229.2, 193.0)">h</text><text xml:space="preserve" font-family="HoeflerText-Italic" font-style="italic" font-size="32.0" fill="#86837E" transform="matrix(1.00, 0.00, -0.00, -1.00, 244.9, 193.0)">d</text><image xlink:href="../../09871B85-5797-4586-A0B6-D2D9D2871D63/assets/CD65D857A7B931AC2348653A8A494A37.png" width="21.00" height="20.00" transform="matrix(1.00, 0.00, -0.00, -1.00, 131.0, 138.0)"></image><image xlink:href="../../9D147B69-119C-4AA4-B97D-0833976F084A/assets/657C6734F74D067B27F2629212620E76.png" width="18.00" height="18.00" transform="matrix(0.89, 0.00, -0.00, -0.89, 133.7, 137.0)"></image><image xlink:href="../../09871B85-5797-4586-A0B6-D2D9D2871D63/assets/3566EE11EECF88940CB9B8C477A00C92.png" width="742.00" height="37.00" transform="matrix(1.00, 0.00, -0.00, -1.00, 159.0, 147.0)"></image><text xml:space="preserve" font-family="HoeflerText-Italic" font-style="italic" font-size="32.0" fill="#86837E" transform="matrix(1.00, 0.00, -0.00, -1.00, 163.0, 122.0)">D</text><text xml:space="preserve" font-family="HoeflerText-Italic" font-style="italic" font-size="32.0" fill="#86837E" transform="matrix(1.00, 0.00, -0.00, -1.00, 188.0, 122.0)">e</text><text xml:space="preserve" font-family="HoeflerText-Italic" font-style="italic" font-size="32.0" fill="#86837E" transform="matrix(1.00, 0.00, -0.00, -1.00, 199.3, 122.0)">c</text><text xml:space="preserve" font-family="HoeflerText-Italic" font-style="italic" font-size="32.0" fill="#86837E" transform="matrix(1.00, 0.00, -0.00, -1.00, 210.5, 122.0)">i</text><text xml:space="preserve" font-family="HoeflerText-Italic" font-style="italic" font-size="32.0" fill="#86837E" transform="matrix(1.00, 0.00, -0.00, -1.00, 219.6, 122.0)">s</text><text xml:space="preserve" font-family="HoeflerText-Italic" font-style="italic" font-size="32.0" fill="#86837E" transform="matrix(1.00, 0.00, -0.00, -1.00, 229.1, 122.0)">i</text><text xml:space="preserve" font-family="HoeflerText-Italic" font-style="italic" font-size="32.0" fill="#86837E" transform="matrix(1.00, 0.00, -0.00, -1.00, 238.2, 122.0)">v</text><text xml:space="preserve" font-family="HoeflerText-Italic" font-style="italic" font-size="32.0" fill="#86837E" transform="matrix(1.00, 0.00, -0.00, -1.00, 255.6, 122.0)">e</text><text xml:space="preserve" font-family="HoeflerText-Italic" font-style="italic" font-size="32.0" fill="#86837E" transform="matrix(1.00, 0.00, -0.00, -1.00, 266.9, 122.0)"> </text><text xml:space="preserve" font-family="HoeflerText-Italic" font-style="italic" font-size="32.0" fill="#86837E" transform="matrix(1.00, 0.00, -0.00, -1.00, 271.9, 122.0)">T</text><text xml:space="preserve" font-family="HoeflerText-Italic" font-style="italic" font-size="32.0" fill="#86837E" transform="matrix(1.00, 0.00, -0.00, -1.00, 289.5, 122.0)">r</text><text xml:space="preserve" font-family="HoeflerText-Italic" font-style="italic" font-size="32.0" fill="#86837E" transform="matrix(1.00, 0.00, -0.00, -1.00, 301.7, 122.0)">e</text><text xml:space="preserve" font-family="HoeflerText-Italic" font-style="italic" font-size="32.0" fill="#86837E" transform="matrix(1.00, 0.00, -0.00, -1.00, 313.0, 122.0)">a</text><text xml:space="preserve" font-family="HoeflerText-Italic" font-style="italic" font-size="32.0" fill="#86837E" transform="matrix(1.00, 0.00, -0.00, -1.00, 327.9, 122.0)">t</text><text xml:space="preserve" font-family="HoeflerText-Italic" font-style="italic" font-size="32.0" fill="#86837E" transform="matrix(1.00, 0.00, -0.00, -1.00, 338.0, 122.0)">i</text><text xml:space="preserve" font-family="HoeflerText-Italic" font-style="italic" font-size="32.0" fill="#86837E" transform="matrix(1.00, 0.00, -0.00, -1.00, 347.1, 122.0)">s</text><text xml:space="preserve" font-family="HoeflerText-Italic" font-style="italic" font-size="32.0" fill="#86837E" transform="matrix(1.00, 0.00, -0.00, -1.00, 356.6, 122.0)">e</text><text xml:space="preserve" font-family="HoeflerText-Italic" font-style="italic" font-size="32.0" fill="#86837E" transform="matrix(1.00, 0.00, -0.00, -1.00, 367.9, 122.0)"> </text><text xml:space="preserve" font-family="HoeflerText-Italic" font-style="italic" font-size="32.0" fill="#86837E" transform="matrix(1.00, 0.00, -0.00, -1.00, 374.5, 122.0)">o</text><text xml:space="preserve" font-family="HoeflerText-Italic" font-style="italic" font-size="32.0" fill="#86837E" transform="matrix(1.00, 0.00, -0.00, -1.00, 387.8, 122.0)">n</text><text xml:space="preserve" font-family="HoeflerText-Italic" font-style="italic" font-size="32.0" fill="#86837E" transform="matrix(1.00, 0.00, -0.00, -1.00, 403.2, 122.0)"> </text><text xml:space="preserve" font-family="HoeflerText-Italic" font-style="italic" font-size="32.0" fill="#86837E" transform="matrix(1.00, 0.00, -0.00, -1.00, 409.8, 122.0)">t</text><text xml:space="preserve" font-family="HoeflerText-Italic" font-style="italic" font-size="32.0" fill="#86837E" transform="matrix(1.00, 0.00, -0.00, -1.00, 419.9, 122.0)">h</text><text xml:space="preserve" font-family="HoeflerText-Italic" font-style="italic" font-size="32.0" fill="#86837E" transform="matrix(1.00, 0.00, -0.00, -1.00, 435.6, 122.0)">e</text><text xml:space="preserve" font-family="HoeflerText-Italic" font-style="italic" font-size="32.0" fill="#86837E" transform="matrix(1.00, 0.00, -0.00, -1.00, 446.9, 122.0)"> </text><text xml:space="preserve" font-family="HoeflerText-Italic" font-style="italic" font-size="32.0" fill="#86837E" transform="matrix(1.00, 0.00, -0.00, -1.00, 453.5, 122.0)">H</text><text xml:space="preserve" font-family="HoeflerText-Italic" font-style="italic" font-size="32.0" fill="#86837E" transform="matrix(1.00, 0.00, -0.00, -1.00, 478.2, 122.0)">a</text><text xml:space="preserve" font-family="HoeflerText-Italic" font-style="italic" font-size="32.0" fill="#86837E" transform="matrix(1.00, 0.00, -0.00, -1.00, 493.1, 122.0)">r</text><text xml:space="preserve" font-family="HoeflerText-Italic" font-style="italic" font-size="32.0" fill="#86837E" transform="matrix(1.00, 0.00, -0.00, -1.00, 505.3, 122.0)">m</text><text xml:space="preserve" font-family="HoeflerText-Italic" font-style="italic" font-size="32.0" fill="#86837E" transform="matrix(1.00, 0.00, -0.00, -1.00, 528.4, 122.0)">o</text><text xml:space="preserve" font-family="HoeflerText-Italic" font-style="italic" font-size="32.0" fill="#86837E" transform="matrix(1.00, 0.00, -0.00, -1.00, 541.8, 122.0)">n</text><text xml:space="preserve" font-family="HoeflerText-Italic" font-style="italic" font-size="32.0" fill="#86837E" transform="matrix(1.00, 0.00, -0.00, -1.00, 557.1, 122.0)">y</text><text xml:space="preserve" font-family="HoeflerText-Italic" font-style="italic" font-size="32.0" fill="#86837E" transform="matrix(1.00, 0.00, -0.00, -1.00, 571.1, 122.0)"> </text><text xml:space="preserve" font-family="HoeflerText-Italic" font-style="italic" font-size="32.0" fill="#86837E" transform="matrix(1.00, 0.00, -0.00, -1.00, 577.7, 122.0)">o</text><text xml:space="preserve" font-family="HoeflerText-Italic" font-style="italic" font-size="32.0" fill="#86837E" transform="matrix(1.00, 0.00, -0.00, -1.00, 591.0, 122.0)">f</text><text xml:space="preserve" font-family="HoeflerText-Italic" font-style="italic" font-size="32.0" fill="#86837E" transform="matrix(1.00, 0.00, -0.00, -1.00, 601.1, 122.0)"> </text><text xml:space="preserve" font-family="HoeflerText-Italic" font-style="italic" font-size="32.0" fill="#86837E" transform="matrix(1.00, 0.00, -0.00, -1.00, 607.6, 122.0)">R</text><text xml:space="preserve" font-family="HoeflerText-Italic" font-style="italic" font-size="32.0" fill="#86837E" transform="matrix(1.00, 0.00, -0.00, -1.00, 628.5, 122.0)">e</text><text xml:space="preserve" font-family="HoeflerText-Italic" font-style="italic" font-size="32.0" fill="#86837E" transform="matrix(1.00, 0.00, -0.00, -1.00, 639.9, 122.0)">l</text><text xml:space="preserve" font-family="HoeflerText-Italic" font-style="italic" font-size="32.0" fill="#86837E" transform="matrix(1.00, 0.00, -0.00, -1.00, 648.4, 122.0)">i</text><text xml:space="preserve" font-family="HoeflerText-Italic" font-style="italic" font-size="32.0" fill="#86837E" transform="matrix(1.00, 0.00, -0.00, -1.00, 657.6, 122.0)">g</text><text xml:space="preserve" font-family="HoeflerText-Italic" font-style="italic" font-size="32.0" fill="#86837E" transform="matrix(1.00, 0.00, -0.00, -1.00, 670.9, 122.0)">i</text><text xml:space="preserve" font-family="HoeflerText-Italic" font-style="italic" font-size="32.0" fill="#86837E" transform="matrix(1.00, 0.00, -0.00, -1.00, 680.0, 122.0)">o</text><text xml:space="preserve" font-family="HoeflerText-Italic" font-style="italic" font-size="32.0" fill="#86837E" transform="matrix(1.00, 0.00, -0.00, -1.00, 693.4, 122.0)">n</text><text xml:space="preserve" font-family="HoeflerText-Italic" font-style="italic" font-size="32.0" fill="#86837E" transform="matrix(1.00, 0.00, -0.00, -1.00, 708.7, 122.0)"> </text><text xml:space="preserve" font-family="HoeflerText-Italic" font-style="italic" font-size="32.0" fill="#86837E" transform="matrix(1.00, 0.00, -0.00, -1.00, 715.3, 122.0)">a</text><text xml:space="preserve" font-family="HoeflerText-Italic" font-style="italic" font-size="32.0" fill="#86837E" transform="matrix(1.00, 0.00, -0.00, -1.00, 730.1, 122.0)">n</text><text xml:space="preserve" font-family="HoeflerText-Italic" font-style="italic" font-size="32.0" fill="#86837E" transform="matrix(1.00, 0.00, -0.00, -1.00, 745.5, 122.0)">d</text><text xml:space="preserve" font-family="HoeflerText-Italic" font-style="italic" font-size="32.0" fill="#86837E" transform="matrix(1.00, 0.00, -0.00, -1.00, 760.8, 122.0)"> </text><text xml:space="preserve" font-family="HoeflerText-Italic" font-style="italic" font-size="32.0" fill="#86837E" transform="matrix(1.00, 0.00, -0.00, -1.00, 767.4, 122.0)">P</text><text xml:space="preserve" font-family="HoeflerText-Italic" font-style="italic" font-size="32.0" fill="#86837E" transform="matrix(1.00, 0.00, -0.00, -1.00, 786.1, 122.0)">h</text><text xml:space="preserve" font-family="HoeflerText-Italic" font-style="italic" font-size="32.0" fill="#86837E" transform="matrix(1.00, 0.00, -0.00, -1.00, 801.8, 122.0)">i</text><text xml:space="preserve" font-family="HoeflerText-Italic" font-style="italic" font-size="32.0" fill="#86837E" transform="matrix(1.00, 0.00, -0.00, -1.00, 811.0, 122.0)">l</text><text xml:space="preserve" font-family="HoeflerText-Italic" font-style="italic" font-size="32.0" fill="#86837E" transform="matrix(1.00, 0.00, -0.00, -1.00, 819.5, 122.0)">o</text><text xml:space="preserve" font-family="HoeflerText-Italic" font-style="italic" font-size="32.0" fill="#86837E" transform="matrix(1.00, 0.00, -0.00, -1.00, 832.9, 122.0)">s</text><text xml:space="preserve" font-family="HoeflerText-Italic" font-style="italic" font-size="32.0" fill="#86837E" transform="matrix(1.00, 0.00, -0.00, -1.00, 842.4, 122.0)">o</text><text xml:space="preserve" font-family="HoeflerText-Italic" font-style="italic" font-size="32.0" fill="#86837E" transform="matrix(1.00, 0.00, -0.00, -1.00, 855.7, 122.0)">p</text><text xml:space="preserve" font-family="HoeflerText-Italic" font-style="italic" font-size="32.0" fill="#86837E" transform="matrix(1.00, 0.00, -0.00, -1.00, 870.4, 122.0)">h</text><text xml:space="preserve" font-family="HoeflerText-Italic" font-style="italic" font-size="32.0" fill="#86837E" transform="matrix(1.00, 0.00, -0.00, -1.00, 886.1, 122.0)">y</text></g></svg>