<?xml version="1.0" encoding="UTF-8" standalone="no"?><svg xmlns="http://www.w3.org/2000/svg" xmlns:xlink="http://www.w3.org/1999/xlink" clip-rule="evenodd" stroke-miterlimit="4.00" viewBox="0 0 1024 768"><desc>SVG generated by Keynote</desc><defs></defs><g transform="matrix(1.00, 0.00, -0.00, -1.00, 0.0, 768.0)"><g><clipPath id="clip-17"><path d="M 0.0 768.0 L 1024.0 768.0 L 1024.0 0.0 L 0.0 0.0 Z M 0.0 768.0 "></path></clipPath><g clip-path="url(#clip-17)"><image xlink:href="../../EF230073-BA57-49A1-B356-9EB3FD921ACC/assets/60C59DE9593AD3C9EB0B682BCB79CA1C.jpeg" width="1024.00" height="768.00" transform="matrix(1.00, 0.00, -0.00, -1.00, 0.0, 768.0)"></image></g></g><image xlink:href="../../EF230073-BA57-49A1-B356-9EB3FD921ACC/assets/04F0C9CA5A854FDDD9E2CA5BB0EA89CF.png" width="411.00" height="535.00" transform="matrix(1.00, 0.00, -0.00, -1.00, 538.0, 652.0)"></image><image xlink:href="../../EF230073-BA57-49A1-B356-9EB3FD921ACC/assets/E5461661ACC15B838A380F03AF453CFE.png" width="405.00" height="54.00" transform="matrix(1.00, 0.00, -0.00, -1.00, 98.0, 437.0)"></image><text xml:space="preserve" font-family="HoeflerText-Regular" font-size="68.0" fill="#BBB08E" transform="matrix(1.00, 0.00, -0.00, -1.00, 96.0, 385.0)">I</text><text xml:space="preserve" font-family="HoeflerText-Regular" font-size="68.0" fill="#BBB08E" transform="matrix(1.00, 0.00, -0.00, -1.00, 126.1, 385.0)">b</text><text xml:space="preserve" font-family="HoeflerText-Regular" font-size="68.0" fill="#BBB08E" transform="matrix(1.00, 0.00, -0.00, -1.00, 163.3, 385.0)">n</text><text xml:space="preserve" font-family="HoeflerText-Regular" font-size="68.0" fill="#BBB08E" transform="matrix(1.00, 0.00, -0.00, -1.00, 200.6, 385.0)"> </text><text xml:space="preserve" font-family="HoeflerText-Regular" font-size="68.0" fill="#BBB08E" transform="matrix(1.00, 0.00, -0.00, -1.00, 214.2, 385.0)">A</text><text xml:space="preserve" font-family="HoeflerText-Regular" font-size="68.0" fill="#BBB08E" transform="matrix(1.00, 0.00, -0.00, -1.00, 264.1, 385.0)">l</text><text xml:space="preserve" font-family="HoeflerText-Regular" font-size="68.0" fill="#BBB08E" transform="matrix(1.00, 0.00, -0.00, -1.00, 281.7, 385.0)">-</text><text xml:space="preserve" font-family="HoeflerText-Regular" font-size="68.0" fill="#BBB08E" transform="matrix(1.00, 0.00, -0.00, -1.00, 303.9, 385.0)">N</text><text xml:space="preserve" font-family="HoeflerText-Regular" font-size="68.0" fill="#BBB08E" transform="matrix(1.00, 0.00, -0.00, -1.00, 359.1, 385.0)">a</text><text xml:space="preserve" font-family="HoeflerText-Regular" font-size="68.0" fill="#BBB08E" transform="matrix(1.00, 0.00, -0.00, -1.00, 389.4, 385.0)">d</text><text xml:space="preserve" font-family="HoeflerText-Regular" font-size="68.0" fill="#BBB08E" transform="matrix(1.00, 0.00, -0.00, -1.00, 426.3, 385.0)">i</text><text xml:space="preserve" font-family="HoeflerText-Regular" font-size="68.0" fill="#BBB08E" transform="matrix(1.00, 0.00, -0.00, -1.00, 445.3, 385.0)">m</text><image xlink:href="../../EF230073-BA57-49A1-B356-9EB3FD921ACC/assets/DA6FC352C294CA044E3A4C88366DD97F.png" width="431.00" height="41.00" transform="matrix(1.00, 0.00, -0.00, -1.00, 84.0, 352.0)"></image><text xml:space="preserve" font-family="HoeflerText-Italic" font-style="italic" font-size="36.0" fill="#86837E" transform="matrix(1.00, 0.00, -0.00, -1.00, 84.0, 324.0)">T</text><text xml:space="preserve" font-family="HoeflerText-Italic" font-style="italic" font-size="36.0" fill="#86837E" transform="matrix(1.00, 0.00, -0.00, -1.00, 103.8, 324.0)">r</text><text xml:space="preserve" font-family="HoeflerText-Italic" font-style="italic" font-size="36.0" fill="#86837E" transform="matrix(1.00, 0.00, -0.00, -1.00, 115.6, 324.0)">a</text><text xml:space="preserve" font-family="HoeflerText-Italic" font-style="italic" font-size="36.0" fill="#86837E" transform="matrix(1.00, 0.00, -0.00, -1.00, 132.3, 324.0)">n</text><text xml:space="preserve" font-family="HoeflerText-Italic" font-style="italic" font-size="36.0" fill="#86837E" transform="matrix(1.00, 0.00, -0.00, -1.00, 149.6, 324.0)">s</text><text xml:space="preserve" font-family="HoeflerText-Italic" font-style="italic" font-size="36.0" fill="#86837E" transform="matrix(1.00, 0.00, -0.00, -1.00, 160.2, 324.0)">l</text><text xml:space="preserve" font-family="HoeflerText-Italic" font-style="italic" font-size="36.0" fill="#86837E" transform="matrix(1.00, 0.00, -0.00, -1.00, 169.9, 324.0)">a</text><text xml:space="preserve" font-family="HoeflerText-Italic" font-style="italic" font-size="36.0" fill="#86837E" transform="matrix(1.00, 0.00, -0.00, -1.00, 186.6, 324.0)">t</text><text xml:space="preserve" font-family="HoeflerText-Italic" font-style="italic" font-size="36.0" fill="#86837E" transform="matrix(1.00, 0.00, -0.00, -1.00, 197.9, 324.0)">i</text><text xml:space="preserve" font-family="HoeflerText-Italic" font-style="italic" font-size="36.0" fill="#86837E" transform="matrix(1.00, 0.00, -0.00, -1.00, 208.2, 324.0)">o</text><text xml:space="preserve" font-family="HoeflerText-Italic" font-style="italic" font-size="36.0" fill="#86837E" transform="matrix(1.00, 0.00, -0.00, -1.00, 223.2, 324.0)">n</text><text xml:space="preserve" font-family="HoeflerText-Italic" font-style="italic" font-size="36.0" fill="#86837E" transform="matrix(1.00, 0.00, -0.00, -1.00, 240.5, 324.0)">s</text><text xml:space="preserve" font-family="HoeflerText-Italic" font-style="italic" font-size="36.0" fill="#86837E" transform="matrix(1.00, 0.00, -0.00, -1.00, 251.2, 324.0)"> </text><text xml:space="preserve" font-family="HoeflerText-Italic" font-style="italic" font-size="36.0" fill="#86837E" transform="matrix(1.00, 0.00, -0.00, -1.00, 258.6, 324.0)">w</text><text xml:space="preserve" font-family="HoeflerText-Italic" font-style="italic" font-size="36.0" fill="#86837E" transform="matrix(1.00, 0.00, -0.00, -1.00, 285.8, 324.0)">e</text><text xml:space="preserve" font-family="HoeflerText-Italic" font-style="italic" font-size="36.0" fill="#86837E" transform="matrix(1.00, 0.00, -0.00, -1.00, 298.5, 324.0)">r</text><text xml:space="preserve" font-family="HoeflerText-Italic" font-style="italic" font-size="36.0" fill="#86837E" transform="matrix(1.00, 0.00, -0.00, -1.00, 312.3, 324.0)">e</text><text xml:space="preserve" font-family="HoeflerText-Italic" font-style="italic" font-size="36.0" fill="#86837E" transform="matrix(1.00, 0.00, -0.00, -1.00, 325.0, 324.0)"> </text><text xml:space="preserve" font-family="HoeflerText-Italic" font-style="italic" font-size="36.0" fill="#86837E" transform="matrix(1.00, 0.00, -0.00, -1.00, 332.4, 324.0)">c</text><text xml:space="preserve" font-family="HoeflerText-Italic" font-style="italic" font-size="36.0" fill="#86837E" transform="matrix(1.00, 0.00, -0.00, -1.00, 345.0, 324.0)">o</text><text xml:space="preserve" font-family="HoeflerText-Italic" font-style="italic" font-size="36.0" fill="#86837E" transform="matrix(1.00, 0.00, -0.00, -1.00, 360.0, 324.0)">m</text><text xml:space="preserve" font-family="HoeflerText-Italic" font-style="italic" font-size="36.0" fill="#86837E" transform="matrix(1.00, 0.00, -0.00, -1.00, 386.0, 324.0)">p</text><text xml:space="preserve" font-family="HoeflerText-Italic" font-style="italic" font-size="36.0" fill="#86837E" transform="matrix(1.00, 0.00, -0.00, -1.00, 402.5, 324.0)">l</text><text xml:space="preserve" font-family="HoeflerText-Italic" font-style="italic" font-size="36.0" fill="#86837E" transform="matrix(1.00, 0.00, -0.00, -1.00, 412.1, 324.0)">i</text><text xml:space="preserve" font-family="HoeflerText-Italic" font-style="italic" font-size="36.0" fill="#86837E" transform="matrix(1.00, 0.00, -0.00, -1.00, 422.4, 324.0)">e</text><text xml:space="preserve" font-family="HoeflerText-Italic" font-style="italic" font-size="36.0" fill="#86837E" transform="matrix(1.00, 0.00, -0.00, -1.00, 435.2, 324.0)">d</text><text xml:space="preserve" font-family="HoeflerText-Italic" font-style="italic" font-size="36.0" fill="#86837E" transform="matrix(1.00, 0.00, -0.00, -1.00, 452.4, 324.0)"> </text><text xml:space="preserve" font-family="HoeflerText-Italic" font-style="italic" font-size="36.0" fill="#86837E" transform="matrix(1.00, 0.00, -0.00, -1.00, 459.8, 324.0)">i</text><text xml:space="preserve" font-family="HoeflerText-Italic" font-style="italic" font-size="36.0" fill="#86837E" transform="matrix(1.00, 0.00, -0.00, -1.00, 470.1, 324.0)">n</text><text xml:space="preserve" font-family="HoeflerText-Italic" font-style="italic" font-size="36.0" fill="#86837E" transform="matrix(1.00, 0.00, -0.00, -1.00, 487.3, 324.0)">t</text><text xml:space="preserve" font-family="HoeflerText-Italic" font-style="italic" font-size="36.0" fill="#86837E" transform="matrix(1.00, 0.00, -0.00, -1.00, 498.7, 324.0)">o</text><text xml:space="preserve" font-family="HoeflerText-Italic" font-style="italic" font-size="36.0" fill="#86837E" transform="matrix(1.00, 0.00, -0.00, -1.00, 513.7, 324.0)"> </text><image xlink:href="../../EF230073-BA57-49A1-B356-9EB3FD921ACC/assets/F47B8C3C1CA9D3C6ACDFF31CD5AB3E07.png" width="150.00" height="32.00" transform="matrix(1.00, 0.00, -0.00, -1.00, 223.0, 300.0)"></image><text xml:space="preserve" font-family="HoeflerText-Italic" font-style="italic" font-size="36.0" fill="#86837E" transform="matrix(1.00, 0.00, -0.00, -1.00, 228.0, 272.0)">A</text><text xml:space="preserve" font-family="HoeflerText-Italic" font-style="italic" font-size="36.0" fill="#86837E" transform="matrix(1.00, 0.00, -0.00, -1.00, 254.4, 272.0)">l</text><text xml:space="preserve" font-family="HoeflerText-Italic" font-style="italic" font-size="36.0" fill="#86837E" transform="matrix(1.00, 0.00, -0.00, -1.00, 264.0, 272.0)">-</text><text xml:space="preserve" font-family="HoeflerText-Italic" font-style="italic" font-size="36.0" fill="#86837E" transform="matrix(1.00, 0.00, -0.00, -1.00, 274.8, 272.0)">F</text><text xml:space="preserve" font-family="HoeflerText-Italic" font-style="italic" font-size="36.0" fill="#86837E" transform="matrix(1.00, 0.00, -0.00, -1.00, 293.2, 272.0)">e</text><text xml:space="preserve" font-family="HoeflerText-Italic" font-style="italic" font-size="36.0" fill="#86837E" transform="matrix(1.00, 0.00, -0.00, -1.00, 306.0, 272.0)">h</text><text xml:space="preserve" font-family="HoeflerText-Italic" font-style="italic" font-size="36.0" fill="#86837E" transform="matrix(1.00, 0.00, -0.00, -1.00, 323.7, 272.0)">r</text><text xml:space="preserve" font-family="HoeflerText-Italic" font-style="italic" font-size="36.0" fill="#86837E" transform="matrix(1.00, 0.00, -0.00, -1.00, 337.4, 272.0)">i</text><text xml:space="preserve" font-family="HoeflerText-Italic" font-style="italic" font-size="36.0" fill="#86837E" transform="matrix(1.00, 0.00, -0.00, -1.00, 347.7, 272.0)">s</text><text xml:space="preserve" font-family="HoeflerText-Italic" font-style="italic" font-size="36.0" fill="#86837E" transform="matrix(1.00, 0.00, -0.00, -1.00, 358.4, 272.0)">t</text></g></svg>