<?xml version="1.0" encoding="UTF-8" standalone="no"?><svg xmlns="http://www.w3.org/2000/svg" xmlns:xlink="http://www.w3.org/1999/xlink" clip-rule="evenodd" stroke-miterlimit="4.00" viewBox="0 0 1024 768"><desc>SVG generated by Keynote</desc><defs></defs><g transform="matrix(1.00, 0.00, -0.00, -1.00, 0.0, 768.0)"><g><clipPath id="clip-3"><path d="M 0.0 768.0 L 1024.0 768.0 L 1024.0 0.0 L 0.0 0.0 Z M 0.0 768.0 "></path></clipPath><g clip-path="url(#clip-3)"><image xlink:href="../../DE7CC215-8E88-4E8C-92CF-7B67931128F8/assets/49ED80394AFA01C033594451A1CC5E1D.jpeg" width="1024.00" height="768.00" transform="matrix(1.00, 0.00, -0.00, -1.00, 0.0, 768.0)"></image></g></g><image xlink:href="../../DE7CC215-8E88-4E8C-92CF-7B67931128F8/assets/39272F0E5DF12D44E330AC3BDE44058D.png" width="584.00" height="31.00" transform="matrix(1.00, 0.00, -0.00, -1.00, 220.0, 353.0)"></image><image xlink:href="../../DE7CC215-8E88-4E8C-92CF-7B67931128F8/assets/E27F63D934F0830599F273A72378CA97.png" width="628.00" height="62.00" transform="matrix(1.00, 0.00, -0.00, -1.00, 200.0, 543.0)"></image><text xml:space="preserve" font-family="HoeflerText-Regular" font-size="76.0" fill="#F3D799" transform="matrix(1.00, 0.00, -0.00, -1.00, 199.0, 483.0)">G</text><text xml:space="preserve" font-family="HoeflerText-Regular" font-size="76.0" fill="#F3D799" transform="matrix(1.00, 0.00, -0.00, -1.00, 260.2, 483.0)">r</text><text xml:space="preserve" font-family="HoeflerText-Regular" font-size="76.0" fill="#F3D799" transform="matrix(1.00, 0.00, -0.00, -1.00, 288.5, 483.0)">e</text><text xml:space="preserve" font-family="HoeflerText-Regular" font-size="76.0" fill="#F3D799" transform="matrix(1.00, 0.00, -0.00, -1.00, 324.0, 483.0)">e</text><text xml:space="preserve" font-family="HoeflerText-Regular" font-size="76.0" fill="#F3D799" transform="matrix(1.00, 0.00, -0.00, -1.00, 359.6, 483.0)">k</text><text xml:space="preserve" font-family="HoeflerText-Regular" font-size="76.0" fill="#F3D799" transform="matrix(1.00, 0.00, -0.00, -1.00, 401.1, 483.0)"> </text><text xml:space="preserve" font-family="HoeflerText-Regular" font-size="76.0" fill="#F3D799" transform="matrix(1.00, 0.00, -0.00, -1.00, 420.1, 483.0)">I</text><text xml:space="preserve" font-family="HoeflerText-Regular" font-size="76.0" fill="#F3D799" transform="matrix(1.00, 0.00, -0.00, -1.00, 450.6, 483.0)">n</text><text xml:space="preserve" font-family="HoeflerText-Regular" font-size="76.0" fill="#F3D799" transform="matrix(1.00, 0.00, -0.00, -1.00, 492.2, 483.0)">f</text><text xml:space="preserve" font-family="HoeflerText-Regular" font-size="76.0" fill="#F3D799" transform="matrix(1.00, 0.00, -0.00, -1.00, 517.7, 483.0)">l</text><text xml:space="preserve" font-family="HoeflerText-Regular" font-size="76.0" fill="#F3D799" transform="matrix(1.00, 0.00, -0.00, -1.00, 537.4, 483.0)">u</text><text xml:space="preserve" font-family="HoeflerText-Regular" font-size="76.0" fill="#F3D799" transform="matrix(1.00, 0.00, -0.00, -1.00, 577.1, 483.0)">e</text><text xml:space="preserve" font-family="HoeflerText-Regular" font-size="76.0" fill="#F3D799" transform="matrix(1.00, 0.00, -0.00, -1.00, 612.7, 483.0)">n</text><text xml:space="preserve" font-family="HoeflerText-Regular" font-size="76.0" fill="#F3D799" transform="matrix(1.00, 0.00, -0.00, -1.00, 654.3, 483.0)">c</text><text xml:space="preserve" font-family="HoeflerText-Regular" font-size="76.0" fill="#F3D799" transform="matrix(1.00, 0.00, -0.00, -1.00, 688.7, 483.0)">e</text><text xml:space="preserve" font-family="HoeflerText-Regular" font-size="76.0" fill="#F3D799" transform="matrix(1.00, 0.00, -0.00, -1.00, 724.2, 483.0)"> </text><text xml:space="preserve" font-family="HoeflerText-Regular" font-size="76.0" fill="#F3D799" transform="matrix(1.00, 0.00, -0.00, -1.00, 743.2, 483.0)">o</text><text xml:space="preserve" font-family="HoeflerText-Regular" font-size="76.0" fill="#F3D799" transform="matrix(1.00, 0.00, -0.00, -1.00, 784.0, 483.0)">n</text><text xml:space="preserve" font-family="HoeflerText-Regular" font-size="76.0" fill="#F3D799" transform="matrix(1.00, 0.00, -0.00, -1.00, 825.6, 483.0)"> </text><image xlink:href="../../DE7CC215-8E88-4E8C-92CF-7B67931128F8/assets/50E29BC5A3A63F84DF3AB6302BEAA649.png" width="506.00" height="62.00" transform="matrix(1.00, 0.00, -0.00, -1.00, 257.0, 452.0)"></image><text xml:space="preserve" font-family="HoeflerText-Regular" font-size="76.0" fill="#F3D799" transform="matrix(1.00, 0.00, -0.00, -1.00, 260.0, 392.0)">A</text><text xml:space="preserve" font-family="HoeflerText-Regular" font-size="76.0" fill="#F3D799" transform="matrix(1.00, 0.00, -0.00, -1.00, 315.8, 392.0)">r</text><text xml:space="preserve" font-family="HoeflerText-Regular" font-size="76.0" fill="#F3D799" transform="matrix(1.00, 0.00, -0.00, -1.00, 344.1, 392.0)">a</text><text xml:space="preserve" font-family="HoeflerText-Regular" font-size="76.0" fill="#F3D799" transform="matrix(1.00, 0.00, -0.00, -1.00, 378.0, 392.0)">b</text><text xml:space="preserve" font-family="HoeflerText-Regular" font-size="76.0" fill="#F3D799" transform="matrix(1.00, 0.00, -0.00, -1.00, 419.6, 392.0)"> </text><text xml:space="preserve" font-family="HoeflerText-Regular" font-size="76.0" fill="#F3D799" transform="matrix(1.00, 0.00, -0.00, -1.00, 438.6, 392.0)">L</text><text xml:space="preserve" font-family="HoeflerText-Regular" font-size="76.0" fill="#F3D799" transform="matrix(1.00, 0.00, -0.00, -1.00, 485.6, 392.0)">i</text><text xml:space="preserve" font-family="HoeflerText-Regular" font-size="76.0" fill="#F3D799" transform="matrix(1.00, 0.00, -0.00, -1.00, 506.8, 392.0)">t</text><text xml:space="preserve" font-family="HoeflerText-Regular" font-size="76.0" fill="#F3D799" transform="matrix(1.00, 0.00, -0.00, -1.00, 533.8, 392.0)">e</text><text xml:space="preserve" font-family="HoeflerText-Regular" font-size="76.0" fill="#F3D799" transform="matrix(1.00, 0.00, -0.00, -1.00, 569.3, 392.0)">r</text><text xml:space="preserve" font-family="HoeflerText-Regular" font-size="76.0" fill="#F3D799" transform="matrix(1.00, 0.00, -0.00, -1.00, 597.6, 392.0)">a</text><text xml:space="preserve" font-family="HoeflerText-Regular" font-size="76.0" fill="#F3D799" transform="matrix(1.00, 0.00, -0.00, -1.00, 631.5, 392.0)">t</text><text xml:space="preserve" font-family="HoeflerText-Regular" font-size="76.0" fill="#F3D799" transform="matrix(1.00, 0.00, -0.00, -1.00, 659.5, 392.0)">u</text><text xml:space="preserve" font-family="HoeflerText-Regular" font-size="76.0" fill="#F3D799" transform="matrix(1.00, 0.00, -0.00, -1.00, 699.3, 392.0)">r</text><text xml:space="preserve" font-family="HoeflerText-Regular" font-size="76.0" fill="#F3D799" transform="matrix(1.00, 0.00, -0.00, -1.00, 727.6, 392.0)">e</text><image xlink:href="../../DE7CC215-8E88-4E8C-92CF-7B67931128F8/assets/91C75C74BD71F24BB2D66788F989C410.png" width="217.00" height="39.00" transform="matrix(1.00, 0.00, -0.00, -1.00, 403.0, 295.0)"></image><text xml:space="preserve" font-family="HoeflerText-Italic" font-style="italic" font-size="34.0" fill="#C7AE7A" transform="matrix(1.00, 0.00, -0.00, -1.00, 407.0, 267.0)">B</text><text xml:space="preserve" font-family="HoeflerText-Italic" font-style="italic" font-size="34.0" fill="#C7AE7A" transform="matrix(1.00, 0.00, -0.00, -1.00, 428.1, 267.0)">y</text><text xml:space="preserve" font-family="HoeflerText-Italic" font-style="italic" font-size="34.0" fill="#C7AE7A" transform="matrix(1.00, 0.00, -0.00, -1.00, 443.0, 267.0)"> </text><text xml:space="preserve" font-family="HoeflerText-Italic" font-style="italic" font-size="34.0" fill="#C7AE7A" transform="matrix(1.00, 0.00, -0.00, -1.00, 450.0, 267.0)">Q</text><text xml:space="preserve" font-family="HoeflerText-Italic" font-style="italic" font-size="34.0" fill="#C7AE7A" transform="matrix(1.00, 0.00, -0.00, -1.00, 471.5, 267.0)">a</text><text xml:space="preserve" font-family="HoeflerText-Italic" font-style="italic" font-size="34.0" fill="#C7AE7A" transform="matrix(1.00, 0.00, -0.00, -1.00, 487.2, 267.0)">s</text><text xml:space="preserve" font-family="HoeflerText-Italic" font-style="italic" font-size="34.0" fill="#C7AE7A" transform="matrix(1.00, 0.00, -0.00, -1.00, 497.3, 267.0)">i</text><text xml:space="preserve" font-family="HoeflerText-Italic" font-style="italic" font-size="34.0" fill="#C7AE7A" transform="matrix(1.00, 0.00, -0.00, -1.00, 507.0, 267.0)">m</text><text xml:space="preserve" font-family="HoeflerText-Italic" font-style="italic" font-size="34.0" fill="#C7AE7A" transform="matrix(1.00, 0.00, -0.00, -1.00, 531.6, 267.0)"> </text><text xml:space="preserve" font-family="HoeflerText-Italic" font-style="italic" font-size="34.0" fill="#C7AE7A" transform="matrix(1.00, 0.00, -0.00, -1.00, 536.5, 267.0)">A</text><text xml:space="preserve" font-family="HoeflerText-Italic" font-style="italic" font-size="34.0" fill="#C7AE7A" transform="matrix(1.00, 0.00, -0.00, -1.00, 561.6, 267.0)">b</text><text xml:space="preserve" font-family="HoeflerText-Italic" font-style="italic" font-size="34.0" fill="#C7AE7A" transform="matrix(1.00, 0.00, -0.00, -1.00, 576.9, 267.0)">b</text><text xml:space="preserve" font-family="HoeflerText-Italic" font-style="italic" font-size="34.0" fill="#C7AE7A" transform="matrix(1.00, 0.00, -0.00, -1.00, 591.5, 267.0)">a</text><text xml:space="preserve" font-family="HoeflerText-Italic" font-style="italic" font-size="34.0" fill="#C7AE7A" transform="matrix(1.00, 0.00, -0.00, -1.00, 607.3, 267.0)">s</text></g></svg>