<?xml version="1.0" encoding="UTF-8" standalone="no"?><svg xmlns="http://www.w3.org/2000/svg" xmlns:xlink="http://www.w3.org/1999/xlink" clip-rule="evenodd" stroke-miterlimit="4.00" viewBox="0 0 1024 768"><desc>SVG generated by Keynote</desc><defs></defs><g transform="matrix(1.00, 0.00, -0.00, -1.00, 0.0, 768.0)"><g><clipPath id="clip-42"><path d="M 0.0 768.0 L 1024.0 768.0 L 1024.0 0.0 L 0.0 0.0 Z M 0.0 768.0 "></path></clipPath><g clip-path="url(#clip-42)"><image xlink:href="../../DE7CC215-8E88-4E8C-92CF-7B67931128F8/assets/8AB12F7B03861CD0D691945F61E00FB4.jpeg" width="1024.00" height="768.00" transform="matrix(1.00, 0.00, -0.00, -1.00, 0.0, 768.0)"></image></g></g><image xlink:href="98BB2303366C13B1BFCB4B3F0DDC4A66.png" width="371.00" height="54.00" transform="matrix(1.00, 0.00, -0.00, -1.00, 327.0, 674.0)"></image><text xml:space="preserve" font-family="HoeflerText-Regular" font-size="68.0" fill="#BBB08E" transform="matrix(1.00, 0.00, -0.00, -1.00, 328.0, 622.0)">W</text><text xml:space="preserve" font-family="HoeflerText-Regular" font-size="68.0" fill="#BBB08E" transform="matrix(1.00, 0.00, -0.00, -1.00, 393.4, 622.0)">o</text><text xml:space="preserve" font-family="HoeflerText-Regular" font-size="68.0" fill="#BBB08E" transform="matrix(1.00, 0.00, -0.00, -1.00, 429.9, 622.0)">r</text><text xml:space="preserve" font-family="HoeflerText-Regular" font-size="68.0" fill="#BBB08E" transform="matrix(1.00, 0.00, -0.00, -1.00, 455.2, 622.0)">k</text><text xml:space="preserve" font-family="HoeflerText-Regular" font-size="68.0" fill="#BBB08E" transform="matrix(1.00, 0.00, -0.00, -1.00, 492.3, 622.0)">s</text><text xml:space="preserve" font-family="HoeflerText-Regular" font-size="68.0" fill="#BBB08E" transform="matrix(1.00, 0.00, -0.00, -1.00, 518.3, 622.0)"> </text><text xml:space="preserve" font-family="HoeflerText-Regular" font-size="68.0" fill="#BBB08E" transform="matrix(1.00, 0.00, -0.00, -1.00, 535.3, 622.0)">C</text><text xml:space="preserve" font-family="HoeflerText-Regular" font-size="68.0" fill="#BBB08E" transform="matrix(1.00, 0.00, -0.00, -1.00, 585.2, 622.0)">i</text><text xml:space="preserve" font-family="HoeflerText-Regular" font-size="68.0" fill="#BBB08E" transform="matrix(1.00, 0.00, -0.00, -1.00, 604.2, 622.0)">t</text><text xml:space="preserve" font-family="HoeflerText-Regular" font-size="68.0" fill="#BBB08E" transform="matrix(1.00, 0.00, -0.00, -1.00, 628.3, 622.0)">e</text><text xml:space="preserve" font-family="HoeflerText-Regular" font-size="68.0" fill="#BBB08E" transform="matrix(1.00, 0.00, -0.00, -1.00, 660.1, 622.0)">d</text><image xlink:href="../../9D147B69-119C-4AA4-B97D-0833976F084A/assets/A9EB3406DD357AA2D6B90F41827E03D8.png" width="22.00" height="22.00" transform="matrix(1.00, 0.00, -0.00, -1.00, 102.0, 511.0)"></image><image xlink:href="../../9D147B69-119C-4AA4-B97D-0833976F084A/assets/657C6734F74D067B27F2629212620E76.png" width="18.00" height="18.00" transform="matrix(1.00, 0.00, -0.00, -1.00, 104.0, 510.0)"></image><image xlink:href="6BFA697E44D5CDA0BA5060DD35634C0C.png" width="483.00" height="42.00" transform="matrix(1.00, 0.00, -0.00, -1.00, 134.0, 521.0)"></image><text xml:space="preserve" font-family="HoeflerText-Italic" font-style="italic" font-size="36.0" fill="#86837E" transform="matrix(1.00, 0.00, -0.00, -1.00, 137.0, 493.0)">h</text><text xml:space="preserve" font-family="HoeflerText-Italic" font-style="italic" font-size="36.0" fill="#86837E" transform="matrix(1.00, 0.00, -0.00, -1.00, 154.7, 493.0)">t</text><text xml:space="preserve" font-family="HoeflerText-Italic" font-style="italic" font-size="36.0" fill="#86837E" transform="matrix(1.00, 0.00, -0.00, -1.00, 166.1, 493.0)">t</text><text xml:space="preserve" font-family="HoeflerText-Italic" font-style="italic" font-size="36.0" fill="#86837E" transform="matrix(1.00, 0.00, -0.00, -1.00, 177.5, 493.0)">p</text><text xml:space="preserve" font-family="HoeflerText-Italic" font-style="italic" font-size="36.0" fill="#86837E" transform="matrix(1.00, 0.00, -0.00, -1.00, 193.1, 493.0)">:</text><text xml:space="preserve" font-family="HoeflerText-Italic" font-style="italic" font-size="36.0" fill="#86837E" transform="matrix(1.00, 0.00, -0.00, -1.00, 201.4, 493.0)">/</text><text xml:space="preserve" font-family="HoeflerText-Italic" font-style="italic" font-size="36.0" fill="#86837E" transform="matrix(1.00, 0.00, -0.00, -1.00, 212.7, 493.0)">/</text><text xml:space="preserve" font-family="HoeflerText-Italic" font-style="italic" font-size="36.0" fill="#86837E" transform="matrix(1.00, 0.00, -0.00, -1.00, 223.9, 493.0)">w</text><text xml:space="preserve" font-family="HoeflerText-Italic" font-style="italic" font-size="36.0" fill="#86837E" transform="matrix(1.00, 0.00, -0.00, -1.00, 251.2, 493.0)">w</text><text xml:space="preserve" font-family="HoeflerText-Italic" font-style="italic" font-size="36.0" fill="#86837E" transform="matrix(1.00, 0.00, -0.00, -1.00, 278.4, 493.0)">w</text><text xml:space="preserve" font-family="HoeflerText-Italic" font-style="italic" font-size="36.0" fill="#86837E" transform="matrix(1.00, 0.00, -0.00, -1.00, 302.9, 493.0)">.</text><text xml:space="preserve" font-family="HoeflerText-Italic" font-style="italic" font-size="36.0" fill="#86837E" transform="matrix(1.00, 0.00, -0.00, -1.00, 311.1, 493.0)">b</text><text xml:space="preserve" font-family="HoeflerText-Italic" font-style="italic" font-size="36.0" fill="#86837E" transform="matrix(1.00, 0.00, -0.00, -1.00, 327.3, 493.0)">i</text><text xml:space="preserve" font-family="HoeflerText-Italic" font-style="italic" font-size="36.0" fill="#86837E" transform="matrix(1.00, 0.00, -0.00, -1.00, 337.6, 493.0)">o</text><text xml:space="preserve" font-family="HoeflerText-Italic" font-style="italic" font-size="36.0" fill="#86837E" transform="matrix(1.00, 0.00, -0.00, -1.00, 352.6, 493.0)">g</text><text xml:space="preserve" font-family="HoeflerText-Italic" font-style="italic" font-size="36.0" fill="#86837E" transform="matrix(1.00, 0.00, -0.00, -1.00, 368.3, 493.0)">r</text><text xml:space="preserve" font-family="HoeflerText-Italic" font-style="italic" font-size="36.0" fill="#86837E" transform="matrix(1.00, 0.00, -0.00, -1.00, 380.0, 493.0)">a</text><text xml:space="preserve" font-family="HoeflerText-Italic" font-style="italic" font-size="36.0" fill="#86837E" transform="matrix(1.00, 0.00, -0.00, -1.00, 396.7, 493.0)">p</text><text xml:space="preserve" font-family="HoeflerText-Italic" font-style="italic" font-size="36.0" fill="#86837E" transform="matrix(1.00, 0.00, -0.00, -1.00, 413.3, 493.0)">h</text><text xml:space="preserve" font-family="HoeflerText-Italic" font-style="italic" font-size="36.0" fill="#86837E" transform="matrix(1.00, 0.00, -0.00, -1.00, 431.0, 493.0)">y</text><text xml:space="preserve" font-family="HoeflerText-Italic" font-style="italic" font-size="36.0" fill="#86837E" transform="matrix(1.00, 0.00, -0.00, -1.00, 443.5, 493.0)">.</text><text xml:space="preserve" font-family="HoeflerText-Italic" font-style="italic" font-size="36.0" fill="#86837E" transform="matrix(1.00, 0.00, -0.00, -1.00, 451.7, 493.0)">c</text><text xml:space="preserve" font-family="HoeflerText-Italic" font-style="italic" font-size="36.0" fill="#86837E" transform="matrix(1.00, 0.00, -0.00, -1.00, 464.2, 493.0)">o</text><text xml:space="preserve" font-family="HoeflerText-Italic" font-style="italic" font-size="36.0" fill="#86837E" transform="matrix(1.00, 0.00, -0.00, -1.00, 479.3, 493.0)">m</text><text xml:space="preserve" font-family="HoeflerText-Italic" font-style="italic" font-size="36.0" fill="#86837E" transform="matrix(1.00, 0.00, -0.00, -1.00, 505.2, 493.0)">/</text><text xml:space="preserve" font-family="HoeflerText-Italic" font-style="italic" font-size="36.0" fill="#86837E" transform="matrix(1.00, 0.00, -0.00, -1.00, 516.5, 493.0)">p</text><text xml:space="preserve" font-family="HoeflerText-Italic" font-style="italic" font-size="36.0" fill="#86837E" transform="matrix(1.00, 0.00, -0.00, -1.00, 533.0, 493.0)">e</text><text xml:space="preserve" font-family="HoeflerText-Italic" font-style="italic" font-size="36.0" fill="#86837E" transform="matrix(1.00, 0.00, -0.00, -1.00, 545.8, 493.0)">o</text><text xml:space="preserve" font-family="HoeflerText-Italic" font-style="italic" font-size="36.0" fill="#86837E" transform="matrix(1.00, 0.00, -0.00, -1.00, 560.8, 493.0)">p</text><text xml:space="preserve" font-family="HoeflerText-Italic" font-style="italic" font-size="36.0" fill="#86837E" transform="matrix(1.00, 0.00, -0.00, -1.00, 577.3, 493.0)">l</text><text xml:space="preserve" font-family="HoeflerText-Italic" font-style="italic" font-size="36.0" fill="#86837E" transform="matrix(1.00, 0.00, -0.00, -1.00, 587.0, 493.0)">e</text><text xml:space="preserve" font-family="HoeflerText-Italic" font-style="italic" font-size="36.0" fill="#86837E" transform="matrix(1.00, 0.00, -0.00, -1.00, 599.7, 493.0)">/</text><image xlink:href="F8B3351F7642CCB36D759D97D9577B58.png" width="476.00" height="42.00" transform="matrix(1.00, 0.00, -0.00, -1.00, 134.0, 469.0)"></image><text xml:space="preserve" font-family="HoeflerText-Italic" font-style="italic" font-size="36.0" fill="#86837E" transform="matrix(1.00, 0.00, -0.00, -1.00, 137.0, 441.0)">a</text><text xml:space="preserve" font-family="HoeflerText-Italic" font-style="italic" font-size="36.0" fill="#86837E" transform="matrix(1.00, 0.00, -0.00, -1.00, 153.7, 441.0)">r</text><text xml:space="preserve" font-family="HoeflerText-Italic" font-style="italic" font-size="36.0" fill="#86837E" transform="matrix(1.00, 0.00, -0.00, -1.00, 167.5, 441.0)">i</text><text xml:space="preserve" font-family="HoeflerText-Italic" font-style="italic" font-size="36.0" fill="#86837E" transform="matrix(1.00, 0.00, -0.00, -1.00, 177.8, 441.0)">s</text><text xml:space="preserve" font-family="HoeflerText-Italic" font-style="italic" font-size="36.0" fill="#86837E" transform="matrix(1.00, 0.00, -0.00, -1.00, 188.4, 441.0)">t</text><text xml:space="preserve" font-family="HoeflerText-Italic" font-style="italic" font-size="36.0" fill="#86837E" transform="matrix(1.00, 0.00, -0.00, -1.00, 199.8, 441.0)">o</text><text xml:space="preserve" font-family="HoeflerText-Italic" font-style="italic" font-size="36.0" fill="#86837E" transform="matrix(1.00, 0.00, -0.00, -1.00, 214.8, 441.0)">t</text><text xml:space="preserve" font-family="HoeflerText-Italic" font-style="italic" font-size="36.0" fill="#86837E" transform="matrix(1.00, 0.00, -0.00, -1.00, 226.2, 441.0)">l</text><text xml:space="preserve" font-family="HoeflerText-Italic" font-style="italic" font-size="36.0" fill="#86837E" transform="matrix(1.00, 0.00, -0.00, -1.00, 235.8, 441.0)">e</text><text xml:space="preserve" font-family="HoeflerText-Italic" font-style="italic" font-size="36.0" fill="#86837E" transform="matrix(1.00, 0.00, -0.00, -1.00, 248.6, 441.0)">-</text><text xml:space="preserve" font-family="HoeflerText-Italic" font-style="italic" font-size="36.0" fill="#86837E" transform="matrix(1.00, 0.00, -0.00, -1.00, 259.4, 441.0)">9</text><text xml:space="preserve" font-family="HoeflerText-Italic" font-style="italic" font-size="36.0" fill="#86837E" transform="matrix(1.00, 0.00, -0.00, -1.00, 277.0, 441.0)">1</text><text xml:space="preserve" font-family="HoeflerText-Italic" font-style="italic" font-size="36.0" fill="#86837E" transform="matrix(1.00, 0.00, -0.00, -1.00, 291.4, 441.0)">8</text><text xml:space="preserve" font-family="HoeflerText-Italic" font-style="italic" font-size="36.0" fill="#86837E" transform="matrix(1.00, 0.00, -0.00, -1.00, 308.2, 441.0)">8</text><text xml:space="preserve" font-family="HoeflerText-Italic" font-style="italic" font-size="36.0" fill="#86837E" transform="matrix(1.00, 0.00, -0.00, -1.00, 324.9, 441.0)">4</text><text xml:space="preserve" font-family="HoeflerText-Italic" font-style="italic" font-size="36.0" fill="#86837E" transform="matrix(1.00, 0.00, -0.00, -1.00, 343.4, 441.0)">1</text><text xml:space="preserve" font-family="HoeflerText-Italic" font-style="italic" font-size="36.0" fill="#86837E" transform="matrix(1.00, 0.00, -0.00, -1.00, 357.9, 441.0)">5</text><text xml:space="preserve" font-family="HoeflerText-Italic" font-style="italic" font-size="36.0" fill="#86837E" transform="matrix(1.00, 0.00, -0.00, -1.00, 372.5, 441.0)">#</text><text xml:space="preserve" font-family="HoeflerText-Italic" font-style="italic" font-size="36.0" fill="#86837E" transform="matrix(1.00, 0.00, -0.00, -1.00, 398.3, 441.0)">m</text><text xml:space="preserve" font-family="HoeflerText-Italic" font-style="italic" font-size="36.0" fill="#86837E" transform="matrix(1.00, 0.00, -0.00, -1.00, 424.2, 441.0)">a</text><text xml:space="preserve" font-family="HoeflerText-Italic" font-style="italic" font-size="36.0" fill="#86837E" transform="matrix(1.00, 0.00, -0.00, -1.00, 440.9, 441.0)">j</text><text xml:space="preserve" font-family="HoeflerText-Italic" font-style="italic" font-size="36.0" fill="#86837E" transform="matrix(1.00, 0.00, -0.00, -1.00, 452.3, 441.0)">o</text><text xml:space="preserve" font-family="HoeflerText-Italic" font-style="italic" font-size="36.0" fill="#86837E" transform="matrix(1.00, 0.00, -0.00, -1.00, 467.3, 441.0)">r</text><text xml:space="preserve" font-family="HoeflerText-Italic" font-style="italic" font-size="36.0" fill="#86837E" transform="matrix(1.00, 0.00, -0.00, -1.00, 481.1, 441.0)">-</text><text xml:space="preserve" font-family="HoeflerText-Italic" font-style="italic" font-size="36.0" fill="#86837E" transform="matrix(1.00, 0.00, -0.00, -1.00, 491.9, 441.0)">w</text><text xml:space="preserve" font-family="HoeflerText-Italic" font-style="italic" font-size="36.0" fill="#86837E" transform="matrix(1.00, 0.00, -0.00, -1.00, 519.1, 441.0)">r</text><text xml:space="preserve" font-family="HoeflerText-Italic" font-style="italic" font-size="36.0" fill="#86837E" transform="matrix(1.00, 0.00, -0.00, -1.00, 532.9, 441.0)">i</text><text xml:space="preserve" font-family="HoeflerText-Italic" font-style="italic" font-size="36.0" fill="#86837E" transform="matrix(1.00, 0.00, -0.00, -1.00, 543.2, 441.0)">t</text><text xml:space="preserve" font-family="HoeflerText-Italic" font-style="italic" font-size="36.0" fill="#86837E" transform="matrix(1.00, 0.00, -0.00, -1.00, 554.5, 441.0)">i</text><text xml:space="preserve" font-family="HoeflerText-Italic" font-style="italic" font-size="36.0" fill="#86837E" transform="matrix(1.00, 0.00, -0.00, -1.00, 564.8, 441.0)">n</text><text xml:space="preserve" font-family="HoeflerText-Italic" font-style="italic" font-size="36.0" fill="#86837E" transform="matrix(1.00, 0.00, -0.00, -1.00, 582.1, 441.0)">g</text><text xml:space="preserve" font-family="HoeflerText-Italic" font-style="italic" font-size="36.0" fill="#86837E" transform="matrix(1.00, 0.00, -0.00, -1.00, 597.0, 441.0)">s</text><image xlink:href="../../C3E23133-2492-496F-A210-6EA6443BC2D0/assets/A461B334BAD19428451AFE6AF97976BD.png" width="22.00" height="23.00" transform="matrix(1.00, 0.00, -0.00, -1.00, 102.0, 380.0)"></image><image xlink:href="../../9D147B69-119C-4AA4-B97D-0833976F084A/assets/657C6734F74D067B27F2629212620E76.png" width="18.00" height="18.00" transform="matrix(1.00, 0.00, -0.00, -1.00, 104.0, 378.8)"></image><image xlink:href="229F1A3ECCCA0C71C94DB48E8F53D732.png" width="547.00" height="42.00" transform="matrix(1.00, 0.00, -0.00, -1.00, 134.0, 390.0)"></image><text xml:space="preserve" font-family="HoeflerText-Italic" font-style="italic" font-size="36.0" fill="#0000FF" transform="matrix(1.00, 0.00, -0.00, -1.00, 137.0, 362.0)">h</text><text xml:space="preserve" font-family="HoeflerText-Italic" font-style="italic" font-size="36.0" fill="#0000FF" transform="matrix(1.00, 0.00, -0.00, -1.00, 154.7, 362.0)">t</text><text xml:space="preserve" font-family="HoeflerText-Italic" font-style="italic" font-size="36.0" fill="#0000FF" transform="matrix(1.00, 0.00, -0.00, -1.00, 166.1, 362.0)">t</text><text xml:space="preserve" font-family="HoeflerText-Italic" font-style="italic" font-size="36.0" fill="#0000FF" transform="matrix(1.00, 0.00, -0.00, -1.00, 177.5, 362.0)">p</text><text xml:space="preserve" font-family="HoeflerText-Italic" font-style="italic" font-size="36.0" fill="#0000FF" transform="matrix(1.00, 0.00, -0.00, -1.00, 193.1, 362.0)">:</text><text xml:space="preserve" font-family="HoeflerText-Italic" font-style="italic" font-size="36.0" fill="#0000FF" transform="matrix(1.00, 0.00, -0.00, -1.00, 201.4, 362.0)">/</text><text xml:space="preserve" font-family="HoeflerText-Italic" font-style="italic" font-size="36.0" fill="#0000FF" transform="matrix(1.00, 0.00, -0.00, -1.00, 212.7, 362.0)">/</text><text xml:space="preserve" font-family="HoeflerText-Italic" font-style="italic" font-size="36.0" fill="#0000FF" transform="matrix(1.00, 0.00, -0.00, -1.00, 223.9, 362.0)">w</text><text xml:space="preserve" font-family="HoeflerText-Italic" font-style="italic" font-size="36.0" fill="#0000FF" transform="matrix(1.00, 0.00, -0.00, -1.00, 251.2, 362.0)">w</text><text xml:space="preserve" font-family="HoeflerText-Italic" font-style="italic" font-size="36.0" fill="#0000FF" transform="matrix(1.00, 0.00, -0.00, -1.00, 278.4, 362.0)">w</text><text xml:space="preserve" font-family="HoeflerText-Italic" font-style="italic" font-size="36.0" fill="#0000FF" transform="matrix(1.00, 0.00, -0.00, -1.00, 302.9, 362.0)">.</text><text xml:space="preserve" font-family="HoeflerText-Italic" font-style="italic" font-size="36.0" fill="#0000FF" transform="matrix(1.00, 0.00, -0.00, -1.00, 311.1, 362.0)">a</text><text xml:space="preserve" font-family="HoeflerText-Italic" font-style="italic" font-size="36.0" fill="#0000FF" transform="matrix(1.00, 0.00, -0.00, -1.00, 327.8, 362.0)">i</text><text xml:space="preserve" font-family="HoeflerText-Italic" font-style="italic" font-size="36.0" fill="#0000FF" transform="matrix(1.00, 0.00, -0.00, -1.00, 338.1, 362.0)">n</text><text xml:space="preserve" font-family="HoeflerText-Italic" font-style="italic" font-size="36.0" fill="#0000FF" transform="matrix(1.00, 0.00, -0.00, -1.00, 355.4, 362.0)">a</text><text xml:space="preserve" font-family="HoeflerText-Italic" font-style="italic" font-size="36.0" fill="#0000FF" transform="matrix(1.00, 0.00, -0.00, -1.00, 370.6, 362.0)">.</text><text xml:space="preserve" font-family="HoeflerText-Italic" font-style="italic" font-size="36.0" fill="#0000FF" transform="matrix(1.00, 0.00, -0.00, -1.00, 378.8, 362.0)">o</text><text xml:space="preserve" font-family="HoeflerText-Italic" font-style="italic" font-size="36.0" fill="#0000FF" transform="matrix(1.00, 0.00, -0.00, -1.00, 393.9, 362.0)">r</text><text xml:space="preserve" font-family="HoeflerText-Italic" font-style="italic" font-size="36.0" fill="#0000FF" transform="matrix(1.00, 0.00, -0.00, -1.00, 407.6, 362.0)">g</text><text xml:space="preserve" font-family="HoeflerText-Italic" font-style="italic" font-size="36.0" fill="#0000FF" transform="matrix(1.00, 0.00, -0.00, -1.00, 422.6, 362.0)">/</text><text xml:space="preserve" font-family="HoeflerText-Italic" font-style="italic" font-size="36.0" fill="#0000FF" transform="matrix(1.00, 0.00, -0.00, -1.00, 433.8, 362.0)">b</text><text xml:space="preserve" font-family="HoeflerText-Italic" font-style="italic" font-size="36.0" fill="#0000FF" transform="matrix(1.00, 0.00, -0.00, -1.00, 450.0, 362.0)">o</text><text xml:space="preserve" font-family="HoeflerText-Italic" font-style="italic" font-size="36.0" fill="#0000FF" transform="matrix(1.00, 0.00, -0.00, -1.00, 465.0, 362.0)">o</text><text xml:space="preserve" font-family="HoeflerText-Italic" font-style="italic" font-size="36.0" fill="#0000FF" transform="matrix(1.00, 0.00, -0.00, -1.00, 480.0, 362.0)">k</text><text xml:space="preserve" font-family="HoeflerText-Italic" font-style="italic" font-size="36.0" fill="#0000FF" transform="matrix(1.00, 0.00, -0.00, -1.00, 497.0, 362.0)">s</text><text xml:space="preserve" font-family="HoeflerText-Italic" font-style="italic" font-size="36.0" fill="#0000FF" transform="matrix(1.00, 0.00, -0.00, -1.00, 507.6, 362.0)">/</text><text xml:space="preserve" font-family="HoeflerText-Italic" font-style="italic" font-size="36.0" fill="#0000FF" transform="matrix(1.00, 0.00, -0.00, -1.00, 518.9, 362.0)">h</text><text xml:space="preserve" font-family="HoeflerText-Italic" font-style="italic" font-size="36.0" fill="#0000FF" transform="matrix(1.00, 0.00, -0.00, -1.00, 536.6, 362.0)">g</text><text xml:space="preserve" font-family="HoeflerText-Italic" font-style="italic" font-size="36.0" fill="#0000FF" transform="matrix(1.00, 0.00, -0.00, -1.00, 551.5, 362.0)">s</text><text xml:space="preserve" font-family="HoeflerText-Italic" font-style="italic" font-size="36.0" fill="#0000FF" transform="matrix(1.00, 0.00, -0.00, -1.00, 562.2, 362.0)">p</text><text xml:space="preserve" font-family="HoeflerText-Italic" font-style="italic" font-size="36.0" fill="#0000FF" transform="matrix(1.00, 0.00, -0.00, -1.00, 578.7, 362.0)">t</text><text xml:space="preserve" font-family="HoeflerText-Italic" font-style="italic" font-size="36.0" fill="#0000FF" transform="matrix(1.00, 0.00, -0.00, -1.00, 590.1, 362.0)">t</text><text xml:space="preserve" font-family="HoeflerText-Italic" font-style="italic" font-size="36.0" fill="#0000FF" transform="matrix(1.00, 0.00, -0.00, -1.00, 601.5, 362.0)">a</text><text xml:space="preserve" font-family="HoeflerText-Italic" font-style="italic" font-size="36.0" fill="#0000FF" transform="matrix(1.00, 0.00, -0.00, -1.00, 616.7, 362.0)">.</text><text xml:space="preserve" font-family="HoeflerText-Italic" font-style="italic" font-size="36.0" fill="#0000FF" transform="matrix(1.00, 0.00, -0.00, -1.00, 624.9, 362.0)">h</text><text xml:space="preserve" font-family="HoeflerText-Italic" font-style="italic" font-size="36.0" fill="#0000FF" transform="matrix(1.00, 0.00, -0.00, -1.00, 642.7, 362.0)">t</text><text xml:space="preserve" font-family="HoeflerText-Italic" font-style="italic" font-size="36.0" fill="#0000FF" transform="matrix(1.00, 0.00, -0.00, -1.00, 654.0, 362.0)">m</text><g><clipPath id="clip-43"><path d="M 136.0 354.8 L 680.0 354.8 L 680.0 359.4 L 136.0 359.4 Z M 136.0 354.8 "></path></clipPath><g clip-path="url(#clip-43)"><path d="M 37.0 175.9 L 580.0 175.9 " fill="none" stroke="#0000FF" stroke-width="2.60" stroke-miterlimit="0.00" transform="matrix(1.00, 0.00, 0.00, -1.00, 100.0, 533.0)"></path></g></g><image xlink:href="../../C3E23133-2492-496F-A210-6EA6443BC2D0/assets/B5FA8A6322619A1C4C19C558A07D4EB7.png" width="22.00" height="23.00" transform="matrix(1.00, 0.00, -0.00, -1.00, 102.0, 301.0)"></image><image xlink:href="../../9D147B69-119C-4AA4-B97D-0833976F084A/assets/657C6734F74D067B27F2629212620E76.png" width="18.00" height="18.00" transform="matrix(1.00, 0.00, -0.00, -1.00, 104.0, 299.2)"></image><image xlink:href="4CEA398E367D7E61AE673F32936DD164.png" width="520.00" height="42.00" transform="matrix(1.00, 0.00, -0.00, -1.00, 134.0, 310.0)"></image><text xml:space="preserve" font-family="HoeflerText-Italic" font-style="italic" font-size="36.0" fill="#0000FF" transform="matrix(1.00, 0.00, -0.00, -1.00, 137.0, 282.0)">h</text><text xml:space="preserve" font-family="HoeflerText-Italic" font-style="italic" font-size="36.0" fill="#0000FF" transform="matrix(1.00, 0.00, -0.00, -1.00, 154.7, 282.0)">t</text><text xml:space="preserve" font-family="HoeflerText-Italic" font-style="italic" font-size="36.0" fill="#0000FF" transform="matrix(1.00, 0.00, -0.00, -1.00, 166.1, 282.0)">t</text><text xml:space="preserve" font-family="HoeflerText-Italic" font-style="italic" font-size="36.0" fill="#0000FF" transform="matrix(1.00, 0.00, -0.00, -1.00, 177.5, 282.0)">p</text><text xml:space="preserve" font-family="HoeflerText-Italic" font-style="italic" font-size="36.0" fill="#0000FF" transform="matrix(1.00, 0.00, -0.00, -1.00, 193.1, 282.0)">:</text><text xml:space="preserve" font-family="HoeflerText-Italic" font-style="italic" font-size="36.0" fill="#0000FF" transform="matrix(1.00, 0.00, -0.00, -1.00, 201.4, 282.0)">/</text><text xml:space="preserve" font-family="HoeflerText-Italic" font-style="italic" font-size="36.0" fill="#0000FF" transform="matrix(1.00, 0.00, -0.00, -1.00, 212.7, 282.0)">/</text><text xml:space="preserve" font-family="HoeflerText-Italic" font-style="italic" font-size="36.0" fill="#0000FF" transform="matrix(1.00, 0.00, -0.00, -1.00, 223.9, 282.0)">w</text><text xml:space="preserve" font-family="HoeflerText-Italic" font-style="italic" font-size="36.0" fill="#0000FF" transform="matrix(1.00, 0.00, -0.00, -1.00, 251.2, 282.0)">w</text><text xml:space="preserve" font-family="HoeflerText-Italic" font-style="italic" font-size="36.0" fill="#0000FF" transform="matrix(1.00, 0.00, -0.00, -1.00, 278.4, 282.0)">w</text><text xml:space="preserve" font-family="HoeflerText-Italic" font-style="italic" font-size="36.0" fill="#0000FF" transform="matrix(1.00, 0.00, -0.00, -1.00, 302.9, 282.0)">.</text><text xml:space="preserve" font-family="HoeflerText-Italic" font-style="italic" font-size="36.0" fill="#0000FF" transform="matrix(1.00, 0.00, -0.00, -1.00, 311.1, 282.0)">s</text><text xml:space="preserve" font-family="HoeflerText-Italic" font-style="italic" font-size="36.0" fill="#0000FF" transform="matrix(1.00, 0.00, -0.00, -1.00, 321.8, 282.0)">t</text><text xml:space="preserve" font-family="HoeflerText-Italic" font-style="italic" font-size="36.0" fill="#0000FF" transform="matrix(1.00, 0.00, -0.00, -1.00, 333.1, 282.0)">o</text><text xml:space="preserve" font-family="HoeflerText-Italic" font-style="italic" font-size="36.0" fill="#0000FF" transform="matrix(1.00, 0.00, -0.00, -1.00, 348.1, 282.0)">r</text><text xml:space="preserve" font-family="HoeflerText-Italic" font-style="italic" font-size="36.0" fill="#0000FF" transform="matrix(1.00, 0.00, -0.00, -1.00, 362.6, 282.0)">y</text><text xml:space="preserve" font-family="HoeflerText-Italic" font-style="italic" font-size="36.0" fill="#0000FF" transform="matrix(1.00, 0.00, -0.00, -1.00, 377.4, 282.0)">o</text><text xml:space="preserve" font-family="HoeflerText-Italic" font-style="italic" font-size="36.0" fill="#0000FF" transform="matrix(1.00, 0.00, -0.00, -1.00, 392.5, 282.0)">f</text><text xml:space="preserve" font-family="HoeflerText-Italic" font-style="italic" font-size="36.0" fill="#0000FF" transform="matrix(1.00, 0.00, -0.00, -1.00, 403.8, 282.0)">m</text><text xml:space="preserve" font-family="HoeflerText-Italic" font-style="italic" font-size="36.0" fill="#0000FF" transform="matrix(1.00, 0.00, -0.00, -1.00, 429.8, 282.0)">a</text><text xml:space="preserve" font-family="HoeflerText-Italic" font-style="italic" font-size="36.0" fill="#0000FF" transform="matrix(1.00, 0.00, -0.00, -1.00, 446.5, 282.0)">t</text><text xml:space="preserve" font-family="HoeflerText-Italic" font-style="italic" font-size="36.0" fill="#0000FF" transform="matrix(1.00, 0.00, -0.00, -1.00, 457.9, 282.0)">h</text><text xml:space="preserve" font-family="HoeflerText-Italic" font-style="italic" font-size="36.0" fill="#0000FF" transform="matrix(1.00, 0.00, -0.00, -1.00, 475.6, 282.0)">e</text><text xml:space="preserve" font-family="HoeflerText-Italic" font-style="italic" font-size="36.0" fill="#0000FF" transform="matrix(1.00, 0.00, -0.00, -1.00, 488.3, 282.0)">m</text><text xml:space="preserve" font-family="HoeflerText-Italic" font-style="italic" font-size="36.0" fill="#0000FF" transform="matrix(1.00, 0.00, -0.00, -1.00, 514.3, 282.0)">a</text><text xml:space="preserve" font-family="HoeflerText-Italic" font-style="italic" font-size="36.0" fill="#0000FF" transform="matrix(1.00, 0.00, -0.00, -1.00, 531.0, 282.0)">t</text><text xml:space="preserve" font-family="HoeflerText-Italic" font-style="italic" font-size="36.0" fill="#0000FF" transform="matrix(1.00, 0.00, -0.00, -1.00, 542.4, 282.0)">i</text><text xml:space="preserve" font-family="HoeflerText-Italic" font-style="italic" font-size="36.0" fill="#0000FF" transform="matrix(1.00, 0.00, -0.00, -1.00, 552.7, 282.0)">c</text><text xml:space="preserve" font-family="HoeflerText-Italic" font-style="italic" font-size="36.0" fill="#0000FF" transform="matrix(1.00, 0.00, -0.00, -1.00, 565.3, 282.0)">s</text><text xml:space="preserve" font-family="HoeflerText-Italic" font-style="italic" font-size="36.0" fill="#0000FF" transform="matrix(1.00, 0.00, -0.00, -1.00, 574.8, 282.0)">.</text><text xml:space="preserve" font-family="HoeflerText-Italic" font-style="italic" font-size="36.0" fill="#0000FF" transform="matrix(1.00, 0.00, -0.00, -1.00, 583.0, 282.0)">c</text><text xml:space="preserve" font-family="HoeflerText-Italic" font-style="italic" font-size="36.0" fill="#0000FF" transform="matrix(1.00, 0.00, -0.00, -1.00, 595.6, 282.0)">o</text><text xml:space="preserve" font-family="HoeflerText-Italic" font-style="italic" font-size="36.0" fill="#0000FF" transform="matrix(1.00, 0.00, -0.00, -1.00, 610.6, 282.0)">m</text><text xml:space="preserve" font-family="HoeflerText-Italic" font-style="italic" font-size="36.0" fill="#0000FF" transform="matrix(1.00, 0.00, -0.00, -1.00, 636.6, 282.0)">/</text><g><clipPath id="clip-44"><path d="M 136.0 275.2 L 647.9 275.2 L 647.9 279.8 L 136.0 279.8 Z M 136.0 275.2 "></path></clipPath><g clip-path="url(#clip-44)"><path d="M 37.0 255.5 L 547.9 255.5 " fill="none" stroke="#0000FF" stroke-width="2.60" stroke-miterlimit="0.00" transform="matrix(1.00, 0.00, 0.00, -1.00, 100.0, 533.0)"></path></g></g><image xlink:href="5AABB15F6255F3A29912D5B59B3C6562.png" width="372.00" height="33.00" transform="matrix(1.00, 0.00, -0.00, -1.00, 135.0, 259.0)"></image><text xml:space="preserve" font-family="HoeflerText-Italic" font-style="italic" font-size="36.0" fill="#0000FF" transform="matrix(1.00, 0.00, -0.00, -1.00, 137.0, 231.0)">i</text><text xml:space="preserve" font-family="HoeflerText-Italic" font-style="italic" font-size="36.0" fill="#0000FF" transform="matrix(1.00, 0.00, -0.00, -1.00, 147.3, 231.0)">s</text><text xml:space="preserve" font-family="HoeflerText-Italic" font-style="italic" font-size="36.0" fill="#0000FF" transform="matrix(1.00, 0.00, -0.00, -1.00, 158.0, 231.0)">l</text><text xml:space="preserve" font-family="HoeflerText-Italic" font-style="italic" font-size="36.0" fill="#0000FF" transform="matrix(1.00, 0.00, -0.00, -1.00, 167.6, 231.0)">a</text><text xml:space="preserve" font-family="HoeflerText-Italic" font-style="italic" font-size="36.0" fill="#0000FF" transform="matrix(1.00, 0.00, -0.00, -1.00, 184.3, 231.0)">m</text><text xml:space="preserve" font-family="HoeflerText-Italic" font-style="italic" font-size="36.0" fill="#0000FF" transform="matrix(1.00, 0.00, -0.00, -1.00, 210.3, 231.0)">i</text><text xml:space="preserve" font-family="HoeflerText-Italic" font-style="italic" font-size="36.0" fill="#0000FF" transform="matrix(1.00, 0.00, -0.00, -1.00, 220.6, 231.0)">c</text><text xml:space="preserve" font-family="HoeflerText-Italic" font-style="italic" font-size="36.0" fill="#0000FF" transform="matrix(1.00, 0.00, -0.00, -1.00, 233.2, 231.0)">_</text><text xml:space="preserve" font-family="HoeflerText-Italic" font-style="italic" font-size="36.0" fill="#0000FF" transform="matrix(1.00, 0.00, -0.00, -1.00, 249.9, 231.0)">a</text><text xml:space="preserve" font-family="HoeflerText-Italic" font-style="italic" font-size="36.0" fill="#0000FF" transform="matrix(1.00, 0.00, -0.00, -1.00, 266.6, 231.0)">l</text><text xml:space="preserve" font-family="HoeflerText-Italic" font-style="italic" font-size="36.0" fill="#0000FF" transform="matrix(1.00, 0.00, -0.00, -1.00, 276.2, 231.0)">k</text><text xml:space="preserve" font-family="HoeflerText-Italic" font-style="italic" font-size="36.0" fill="#0000FF" transform="matrix(1.00, 0.00, -0.00, -1.00, 293.1, 231.0)">h</text><text xml:space="preserve" font-family="HoeflerText-Italic" font-style="italic" font-size="36.0" fill="#0000FF" transform="matrix(1.00, 0.00, -0.00, -1.00, 310.8, 231.0)">w</text><text xml:space="preserve" font-family="HoeflerText-Italic" font-style="italic" font-size="36.0" fill="#0000FF" transform="matrix(1.00, 0.00, -0.00, -1.00, 338.1, 231.0)">a</text><text xml:space="preserve" font-family="HoeflerText-Italic" font-style="italic" font-size="36.0" fill="#0000FF" transform="matrix(1.00, 0.00, -0.00, -1.00, 354.8, 231.0)">r</text><text xml:space="preserve" font-family="HoeflerText-Italic" font-style="italic" font-size="36.0" fill="#0000FF" transform="matrix(1.00, 0.00, -0.00, -1.00, 368.5, 231.0)">i</text><text xml:space="preserve" font-family="HoeflerText-Italic" font-style="italic" font-size="36.0" fill="#0000FF" transform="matrix(1.00, 0.00, -0.00, -1.00, 378.8, 231.0)">z</text><text xml:space="preserve" font-family="HoeflerText-Italic" font-style="italic" font-size="36.0" fill="#0000FF" transform="matrix(1.00, 0.00, -0.00, -1.00, 393.9, 231.0)">m</text><text xml:space="preserve" font-family="HoeflerText-Italic" font-style="italic" font-size="36.0" fill="#0000FF" transform="matrix(1.00, 0.00, -0.00, -1.00, 419.9, 231.0)">i</text><text xml:space="preserve" font-family="HoeflerText-Italic" font-style="italic" font-size="36.0" fill="#0000FF" transform="matrix(1.00, 0.00, -0.00, -1.00, 429.1, 231.0)">.</text><text xml:space="preserve" font-family="HoeflerText-Italic" font-style="italic" font-size="36.0" fill="#0000FF" transform="matrix(1.00, 0.00, -0.00, -1.00, 437.3, 231.0)">h</text><text xml:space="preserve" font-family="HoeflerText-Italic" font-style="italic" font-size="36.0" fill="#0000FF" transform="matrix(1.00, 0.00, -0.00, -1.00, 455.1, 231.0)">t</text><text xml:space="preserve" font-family="HoeflerText-Italic" font-style="italic" font-size="36.0" fill="#0000FF" transform="matrix(1.00, 0.00, -0.00, -1.00, 466.4, 231.0)">m</text><text xml:space="preserve" font-family="HoeflerText-Italic" font-style="italic" font-size="36.0" fill="#0000FF" transform="matrix(1.00, 0.00, -0.00, -1.00, 492.4, 231.0)">l</text><g><clipPath id="clip-45"><path d="M 136.0 223.6 L 502.1 223.6 L 502.1 228.2 L 136.0 228.2 Z M 136.0 223.6 "></path></clipPath><g clip-path="url(#clip-45)"><path d="M 37.0 307.1 L 402.1 307.1 " fill="none" stroke="#0000FF" stroke-width="2.60" stroke-miterlimit="0.00" transform="matrix(1.00, 0.00, 0.00, -1.00, 100.0, 533.0)"></path></g></g><image xlink:href="../../9D147B69-119C-4AA4-B97D-0833976F084A/assets/A9EB3406DD357AA2D6B90F41827E03D8.png" width="22.00" height="22.00" transform="matrix(1.00, 0.00, -0.00, -1.00, 102.0, 169.0)"></image><image xlink:href="../../9D147B69-119C-4AA4-B97D-0833976F084A/assets/657C6734F74D067B27F2629212620E76.png" width="18.00" height="18.00" transform="matrix(1.00, 0.00, -0.00, -1.00, 104.0, 168.0)"></image><image xlink:href="28C8BD2E804B793F97A38924A0649C5C.png" width="590.00" height="42.00" transform="matrix(1.00, 0.00, -0.00, -1.00, 134.0, 179.0)"></image><text xml:space="preserve" font-family="HoeflerText-Italic" font-style="italic" font-size="36.0" fill="#0000FF" transform="matrix(1.00, 0.00, -0.00, -1.00, 137.0, 151.0)">h</text><text xml:space="preserve" font-family="HoeflerText-Italic" font-style="italic" font-size="36.0" fill="#0000FF" transform="matrix(1.00, 0.00, -0.00, -1.00, 154.7, 151.0)">t</text><text xml:space="preserve" font-family="HoeflerText-Italic" font-style="italic" font-size="36.0" fill="#0000FF" transform="matrix(1.00, 0.00, -0.00, -1.00, 166.1, 151.0)">t</text><text xml:space="preserve" font-family="HoeflerText-Italic" font-style="italic" font-size="36.0" fill="#0000FF" transform="matrix(1.00, 0.00, -0.00, -1.00, 177.5, 151.0)">p</text><text xml:space="preserve" font-family="HoeflerText-Italic" font-style="italic" font-size="36.0" fill="#0000FF" transform="matrix(1.00, 0.00, -0.00, -1.00, 193.1, 151.0)">:</text><text xml:space="preserve" font-family="HoeflerText-Italic" font-style="italic" font-size="36.0" fill="#0000FF" transform="matrix(1.00, 0.00, -0.00, -1.00, 201.4, 151.0)">/</text><text xml:space="preserve" font-family="HoeflerText-Italic" font-style="italic" font-size="36.0" fill="#0000FF" transform="matrix(1.00, 0.00, -0.00, -1.00, 212.7, 151.0)">/</text><text xml:space="preserve" font-family="HoeflerText-Italic" font-style="italic" font-size="36.0" fill="#0000FF" transform="matrix(1.00, 0.00, -0.00, -1.00, 223.9, 151.0)">w</text><text xml:space="preserve" font-family="HoeflerText-Italic" font-style="italic" font-size="36.0" fill="#0000FF" transform="matrix(1.00, 0.00, -0.00, -1.00, 251.2, 151.0)">w</text><text xml:space="preserve" font-family="HoeflerText-Italic" font-style="italic" font-size="36.0" fill="#0000FF" transform="matrix(1.00, 0.00, -0.00, -1.00, 278.4, 151.0)">w</text><text xml:space="preserve" font-family="HoeflerText-Italic" font-style="italic" font-size="36.0" fill="#0000FF" transform="matrix(1.00, 0.00, -0.00, -1.00, 302.9, 151.0)">.</text><text xml:space="preserve" font-family="HoeflerText-Italic" font-style="italic" font-size="36.0" fill="#0000FF" transform="matrix(1.00, 0.00, -0.00, -1.00, 311.1, 151.0)">m</text><text xml:space="preserve" font-family="HoeflerText-Italic" font-style="italic" font-size="36.0" fill="#0000FF" transform="matrix(1.00, 0.00, -0.00, -1.00, 337.1, 151.0)">u</text><text xml:space="preserve" font-family="HoeflerText-Italic" font-style="italic" font-size="36.0" fill="#0000FF" transform="matrix(1.00, 0.00, -0.00, -1.00, 354.7, 151.0)">s</text><text xml:space="preserve" font-family="HoeflerText-Italic" font-style="italic" font-size="36.0" fill="#0000FF" transform="matrix(1.00, 0.00, -0.00, -1.00, 365.4, 151.0)">l</text><text xml:space="preserve" font-family="HoeflerText-Italic" font-style="italic" font-size="36.0" fill="#0000FF" transform="matrix(1.00, 0.00, -0.00, -1.00, 375.0, 151.0)">i</text><text xml:space="preserve" font-family="HoeflerText-Italic" font-style="italic" font-size="36.0" fill="#0000FF" transform="matrix(1.00, 0.00, -0.00, -1.00, 385.3, 151.0)">m</text><text xml:space="preserve" font-family="HoeflerText-Italic" font-style="italic" font-size="36.0" fill="#0000FF" transform="matrix(1.00, 0.00, -0.00, -1.00, 411.3, 151.0)">p</text><text xml:space="preserve" font-family="HoeflerText-Italic" font-style="italic" font-size="36.0" fill="#0000FF" transform="matrix(1.00, 0.00, -0.00, -1.00, 427.8, 151.0)">h</text><text xml:space="preserve" font-family="HoeflerText-Italic" font-style="italic" font-size="36.0" fill="#0000FF" transform="matrix(1.00, 0.00, -0.00, -1.00, 445.6, 151.0)">i</text><text xml:space="preserve" font-family="HoeflerText-Italic" font-style="italic" font-size="36.0" fill="#0000FF" transform="matrix(1.00, 0.00, -0.00, -1.00, 455.9, 151.0)">l</text><text xml:space="preserve" font-family="HoeflerText-Italic" font-style="italic" font-size="36.0" fill="#0000FF" transform="matrix(1.00, 0.00, -0.00, -1.00, 465.5, 151.0)">o</text><text xml:space="preserve" font-family="HoeflerText-Italic" font-style="italic" font-size="36.0" fill="#0000FF" transform="matrix(1.00, 0.00, -0.00, -1.00, 480.5, 151.0)">s</text><text xml:space="preserve" font-family="HoeflerText-Italic" font-style="italic" font-size="36.0" fill="#0000FF" transform="matrix(1.00, 0.00, -0.00, -1.00, 491.2, 151.0)">o</text><text xml:space="preserve" font-family="HoeflerText-Italic" font-style="italic" font-size="36.0" fill="#0000FF" transform="matrix(1.00, 0.00, -0.00, -1.00, 506.2, 151.0)">p</text><text xml:space="preserve" font-family="HoeflerText-Italic" font-style="italic" font-size="36.0" fill="#0000FF" transform="matrix(1.00, 0.00, -0.00, -1.00, 522.7, 151.0)">h</text><text xml:space="preserve" font-family="HoeflerText-Italic" font-style="italic" font-size="36.0" fill="#0000FF" transform="matrix(1.00, 0.00, -0.00, -1.00, 540.4, 151.0)">y</text><text xml:space="preserve" font-family="HoeflerText-Italic" font-style="italic" font-size="36.0" fill="#0000FF" transform="matrix(1.00, 0.00, -0.00, -1.00, 552.9, 151.0)">.</text><text xml:space="preserve" font-family="HoeflerText-Italic" font-style="italic" font-size="36.0" fill="#0000FF" transform="matrix(1.00, 0.00, -0.00, -1.00, 561.1, 151.0)">c</text><text xml:space="preserve" font-family="HoeflerText-Italic" font-style="italic" font-size="36.0" fill="#0000FF" transform="matrix(1.00, 0.00, -0.00, -1.00, 573.7, 151.0)">o</text><text xml:space="preserve" font-family="HoeflerText-Italic" font-style="italic" font-size="36.0" fill="#0000FF" transform="matrix(1.00, 0.00, -0.00, -1.00, 588.7, 151.0)">m</text><text xml:space="preserve" font-family="HoeflerText-Italic" font-style="italic" font-size="36.0" fill="#0000FF" transform="matrix(1.00, 0.00, -0.00, -1.00, 614.7, 151.0)">/</text><text xml:space="preserve" font-family="HoeflerText-Italic" font-style="italic" font-size="36.0" fill="#0000FF" transform="matrix(1.00, 0.00, -0.00, -1.00, 626.0, 151.0)">i</text><text xml:space="preserve" font-family="HoeflerText-Italic" font-style="italic" font-size="36.0" fill="#0000FF" transform="matrix(1.00, 0.00, -0.00, -1.00, 636.2, 151.0)">p</text><text xml:space="preserve" font-family="HoeflerText-Italic" font-style="italic" font-size="36.0" fill="#0000FF" transform="matrix(1.00, 0.00, -0.00, -1.00, 652.8, 151.0)">/</text><text xml:space="preserve" font-family="HoeflerText-Italic" font-style="italic" font-size="36.0" fill="#0000FF" transform="matrix(1.00, 0.00, -0.00, -1.00, 664.0, 151.0)">r</text><text xml:space="preserve" font-family="HoeflerText-Italic" font-style="italic" font-size="36.0" fill="#0000FF" transform="matrix(1.00, 0.00, -0.00, -1.00, 677.8, 151.0)">e</text><text xml:space="preserve" font-family="HoeflerText-Italic" font-style="italic" font-size="36.0" fill="#0000FF" transform="matrix(1.00, 0.00, -0.00, -1.00, 690.5, 151.0)">p</text><text xml:space="preserve" font-family="HoeflerText-Italic" font-style="italic" font-size="36.0" fill="#0000FF" transform="matrix(1.00, 0.00, -0.00, -1.00, 707.1, 151.0)">/</text><g><clipPath id="clip-46"><path d="M 136.0 144.0 L 718.3 144.0 L 718.3 148.6 L 136.0 148.6 Z M 136.0 144.0 "></path></clipPath><g clip-path="url(#clip-46)"><path d="M 37.0 386.7 L 618.3 386.7 " fill="none" stroke="#0000FF" stroke-width="2.60" stroke-miterlimit="0.00" transform="matrix(1.00, 0.00, 0.00, -1.00, 100.0, 533.0)"></path></g></g><image xlink:href="8304E9C7B8E6473DB1B75065BE9BFC5F.png" width="417.00" height="40.00" transform="matrix(1.00, 0.00, -0.00, -1.00, 133.0, 127.0)"></image><text xml:space="preserve" font-family="HoeflerText-Italic" font-style="italic" font-size="36.0" fill="#0000FF" transform="matrix(1.00, 0.00, -0.00, -1.00, 137.0, 99.0)">H</text><text xml:space="preserve" font-family="HoeflerText-Italic" font-style="italic" font-size="36.0" fill="#0000FF" transform="matrix(1.00, 0.00, -0.00, -1.00, 166.1, 99.0)">0</text><text xml:space="preserve" font-family="HoeflerText-Italic" font-style="italic" font-size="36.0" fill="#0000FF" transform="matrix(1.00, 0.00, -0.00, -1.00, 183.0, 99.0)">0</text><text xml:space="preserve" font-family="HoeflerText-Italic" font-style="italic" font-size="36.0" fill="#0000FF" transform="matrix(1.00, 0.00, -0.00, -1.00, 199.9, 99.0)">2</text><text xml:space="preserve" font-family="HoeflerText-Italic" font-style="italic" font-size="36.0" fill="#0000FF" transform="matrix(1.00, 0.00, -0.00, -1.00, 216.5, 99.0)">.</text><text xml:space="preserve" font-family="HoeflerText-Italic" font-style="italic" font-size="36.0" fill="#0000FF" transform="matrix(1.00, 0.00, -0.00, -1.00, 224.7, 99.0)">h</text><text xml:space="preserve" font-family="HoeflerText-Italic" font-style="italic" font-size="36.0" fill="#0000FF" transform="matrix(1.00, 0.00, -0.00, -1.00, 242.4, 99.0)">t</text><text xml:space="preserve" font-family="HoeflerText-Italic" font-style="italic" font-size="36.0" fill="#0000FF" transform="matrix(1.00, 0.00, -0.00, -1.00, 253.8, 99.0)">m</text><text xml:space="preserve" font-family="HoeflerText-Italic" font-style="italic" font-size="36.0" fill="#0000FF" transform="matrix(1.00, 0.00, -0.00, -1.00, 279.8, 99.0)">#</text><text xml:space="preserve" font-family="HoeflerText-Italic" font-style="italic" font-size="36.0" fill="#0000FF" transform="matrix(1.00, 0.00, -0.00, -1.00, 305.5, 99.0)">H</text><text xml:space="preserve" font-family="HoeflerText-Italic" font-style="italic" font-size="36.0" fill="#0000FF" transform="matrix(1.00, 0.00, -0.00, -1.00, 334.6, 99.0)">0</text><text xml:space="preserve" font-family="HoeflerText-Italic" font-style="italic" font-size="36.0" fill="#0000FF" transform="matrix(1.00, 0.00, -0.00, -1.00, 351.5, 99.0)">0</text><text xml:space="preserve" font-family="HoeflerText-Italic" font-style="italic" font-size="36.0" fill="#0000FF" transform="matrix(1.00, 0.00, -0.00, -1.00, 368.4, 99.0)">2</text><text xml:space="preserve" font-family="HoeflerText-Italic" font-style="italic" font-size="36.0" fill="#0000FF" transform="matrix(1.00, 0.00, -0.00, -1.00, 385.0, 99.0)">B</text><text xml:space="preserve" font-family="HoeflerText-Italic" font-style="italic" font-size="36.0" fill="#0000FF" transform="matrix(1.00, 0.00, -0.00, -1.00, 407.4, 99.0)">I</text><text xml:space="preserve" font-family="HoeflerText-Italic" font-style="italic" font-size="36.0" fill="#0000FF" transform="matrix(1.00, 0.00, -0.00, -1.00, 422.9, 99.0)">B</text><text xml:space="preserve" font-family="HoeflerText-Italic" font-style="italic" font-size="36.0" fill="#0000FF" transform="matrix(1.00, 0.00, -0.00, -1.00, 445.3, 99.0)">E</text><text xml:space="preserve" font-family="HoeflerText-Italic" font-style="italic" font-size="36.0" fill="#0000FF" transform="matrix(1.00, 0.00, -0.00, -1.00, 467.7, 99.0)">N</text><text xml:space="preserve" font-family="HoeflerText-Italic" font-style="italic" font-size="36.0" fill="#0000FF" transform="matrix(1.00, 0.00, -0.00, -1.00, 495.7, 99.0)">T</text><text xml:space="preserve" font-family="HoeflerText-Italic" font-style="italic" font-size="36.0" fill="#0000FF" transform="matrix(1.00, 0.00, -0.00, -1.00, 519.8, 99.0)">1</text><text xml:space="preserve" font-family="HoeflerText-Italic" font-style="italic" font-size="36.0" fill="#0000FF" transform="matrix(1.00, 0.00, -0.00, -1.00, 534.3, 99.0)">5</text><g><clipPath id="clip-47"><path d="M 136.0 92.4 L 548.9 92.4 L 548.9 97.0 L 136.0 97.0 Z M 136.0 92.4 "></path></clipPath><g clip-path="url(#clip-47)"><path d="M 37.0 438.3 L 448.9 438.3 " fill="none" stroke="#0000FF" stroke-width="2.60" stroke-miterlimit="0.00" transform="matrix(1.00, 0.00, 0.00, -1.00, 100.0, 533.0)"></path></g></g></g></svg>